<?xml version="1.0" standalone="no"?>
<!DOCTYPE svg PUBLIC "-//W3C//DTD SVG 20010904//EN"
 "http://www.w3.org/TR/2001/REC-SVG-20010904/DTD/svg10.dtd">
<svg version="1.0" xmlns="http://www.w3.org/2000/svg"
 width="1088.000000pt" height="1088.000000pt" viewBox="0 0 1088.000000 1088.000000"
 preserveAspectRatio="xMidYMid meet">
<metadata>
Created by potrace 1.14, written by Peter Selinger 2001-2017
</metadata>
<g transform="translate(0.000000,1088.000000) scale(0.100000,-0.100000)"
fill="#000000" stroke="none">
<path d="M925 10560 c-3 -6 1 -7 9 -4 18 7 21 14 7 14 -6 0 -13 -4 -16 -10z"/>
<path d="M1475 10560 c3 -5 8 -10 11 -10 2 0 4 5 4 10 0 6 -5 10 -11 10 -5 0
-7 -4 -4 -10z"/>
<path d="M2845 10560 c-3 -6 1 -7 9 -4 18 7 21 14 7 14 -6 0 -13 -4 -16 -10z"/>
<path d="M3395 10560 c3 -5 8 -10 11 -10 2 0 4 5 4 10 0 6 -5 10 -11 10 -5 0
-7 -4 -4 -10z"/>
<path d="M4765 10560 c-3 -6 1 -7 9 -4 18 7 21 14 7 14 -6 0 -13 -4 -16 -10z"/>
<path d="M5315 10560 c3 -5 8 -10 11 -10 2 0 4 5 4 10 0 6 -5 10 -11 10 -5 0
-7 -4 -4 -10z"/>
<path d="M6685 10560 c-3 -6 1 -7 9 -4 18 7 21 14 7 14 -6 0 -13 -4 -16 -10z"/>
<path d="M7235 10560 c3 -5 8 -10 11 -10 2 0 4 5 4 10 0 6 -5 10 -11 10 -5 0
-7 -4 -4 -10z"/>
<path d="M8605 10560 c-3 -6 1 -7 9 -4 18 7 21 14 7 14 -6 0 -13 -4 -16 -10z"/>
<path d="M9155 10560 c3 -5 8 -10 11 -10 2 0 4 5 4 10 0 6 -5 10 -11 10 -5 0
-7 -4 -4 -10z"/>
<path d="M875 10530 c-3 -5 -91 -9 -215 -8 -149 1 -218 -3 -240 -12 -59 -25
-61 -35 -62 -423 0 -246 -4 -356 -12 -366 -8 -11 -8 -13 1 -7 18 10 17 -1892
0 -1913 -9 -12 -9 -13 0 -7 18 10 17 -1892 0 -1913 -9 -12 -9 -13 0 -7 18 10
17 -1892 0 -1913 -9 -12 -9 -13 0 -7 18 10 17 -1892 0 -1913 -9 -12 -9 -13 0
-7 10 6 12 -160 10 -803 -1 -445 1 -807 5 -805 4 2 9 -5 13 -16 4 -11 21 -28
38 -36 27 -14 73 -17 329 -16 230 1 297 -2 292 -11 -5 -9 -3 -8 7 1 7 6 37 12
67 12 40 0 51 -3 46 -12 -6 -10 -4 -10 7 -1 18 18 123 18 113 1 -6 -10 -4 -10
7 -1 7 7 37 13 67 13 40 0 51 -3 46 -13 -6 -9 -5 -9 7 0 20 16 602 17 593 0
-5 -8 -3 -8 7 1 18 17 123 17 113 0 -6 -10 -4 -10 7 0 7 6 37 12 67 12 40 0
51 -3 46 -12 -6 -10 -4 -10 7 0 7 6 37 12 67 12 40 0 51 -3 46 -12 -6 -10 -5
-10 7 -1 21 17 602 17 593 0 -5 -8 -2 -8 7 1 18 17 123 17 113 0 -6 -10 -4
-10 7 0 18 17 123 17 113 0 -6 -11 -4 -11 7 0 18 17 123 17 113 0 -6 -10 -5
-10 7 -1 20 16 602 17 593 0 -5 -8 -3 -8 7 1 18 17 123 17 113 0 -6 -11 -4
-11 7 0 18 17 123 17 113 0 -6 -11 -4 -11 7 0 18 17 123 17 113 -1 -6 -9 -5
-9 7 0 21 17 602 17 593 0 -5 -8 -2 -8 7 1 7 6 37 12 67 12 40 0 51 -3 46 -12
-6 -10 -4 -10 7 -1 18 18 123 18 113 1 -6 -10 -4 -10 7 -1 18 18 123 18 113 1
-6 -10 -5 -10 7 -1 20 16 602 17 593 0 -5 -8 -3 -8 7 1 18 17 123 17 113 0 -6
-10 -4 -10 7 -1 18 18 123 18 113 1 -6 -10 -4 -10 7 -1 18 18 123 18 113 1 -6
-10 -5 -10 7 -1 21 17 602 17 593 0 -5 -8 -2 -8 7 0 18 18 123 18 113 1 -6
-10 -4 -10 7 -1 18 18 123 18 113 0 -6 -9 -4 -9 7 1 18 17 123 17 113 0 -6
-10 -5 -10 7 -1 20 16 602 17 593 0 -5 -8 -3 -8 7 0 18 18 123 18 113 1 -6
-10 -4 -11 7 0 18 17 123 17 113 0 -6 -10 -4 -10 7 -1 18 18 123 18 113 1 -6
-10 -5 -10 7 -1 21 17 602 17 593 0 -5 -8 -2 -8 7 1 18 17 123 17 113 -1 -6
-9 -4 -9 7 0 18 18 123 18 113 1 -6 -10 -4 -11 7 0 18 17 123 17 113 0 -6 -10
-5 -10 7 -1 20 16 602 17 593 0 -5 -8 -3 -8 7 0 18 18 123 18 113 1 -6 -10 -4
-10 7 0 18 17 123 17 113 0 -6 -10 -4 -11 7 0 18 17 123 17 113 -1 -6 -9 -4
-9 7 -1 9 8 81 12 207 13 123 1 202 5 215 13 44 23 56 49 57 123 0 43 5 76 13
84 9 11 9 12 0 7 -10 -6 -13 995 -13 4924 0 4439 -1 4934 -15 4961 -9 16 -28
34 -42 40 -15 5 -98 10 -185 11 -115 0 -156 3 -151 12 5 8 3 8 -8 -1 -20 -16
-562 -16 -553 0 5 8 2 7 -7 0 -7 -7 -37 -13 -67 -13 -40 0 -51 3 -46 13 6 10
4 10 -7 0 -8 -9 -46 -13 -107 -13 -72 0 -92 3 -86 13 6 10 4 10 -7 0 -7 -7
-37 -13 -67 -13 -40 0 -51 3 -46 13 6 10 4 10 -7 0 -7 -7 -37 -13 -67 -13 -40
0 -51 3 -46 13 6 9 5 9 -7 1 -21 -17 -442 -18 -433 -1 5 9 3 9 -7 0 -7 -7 -37
-13 -67 -13 -40 0 -51 3 -46 13 6 10 4 10 -7 0 -7 -7 -37 -13 -67 -13 -40 0
-51 3 -46 13 6 10 4 10 -7 0 -7 -7 -37 -13 -67 -13 -40 0 -51 3 -46 13 6 9 5
9 -7 0 -20 -16 -562 -16 -553 0 5 8 2 7 -7 0 -7 -7 -37 -13 -67 -13 -40 0 -51
3 -46 13 6 10 4 10 -7 0 -8 -9 -46 -13 -107 -13 -72 0 -92 3 -86 13 6 10 4 10
-7 0 -7 -7 -37 -13 -67 -13 -40 0 -51 3 -46 13 6 10 4 10 -7 0 -7 -7 -37 -13
-67 -13 -40 0 -51 3 -46 13 6 9 5 9 -7 1 -21 -17 -442 -18 -433 -1 5 9 3 9 -7
0 -7 -7 -37 -13 -67 -13 -40 0 -51 3 -46 13 6 10 4 10 -7 0 -7 -7 -37 -13 -67
-13 -40 0 -51 3 -46 13 6 10 4 10 -7 0 -7 -7 -37 -13 -67 -13 -40 0 -51 3 -46
13 6 9 5 9 -7 0 -20 -16 -562 -16 -553 0 5 8 2 7 -7 0 -7 -7 -37 -13 -67 -13
-40 0 -51 3 -46 13 6 10 4 10 -7 0 -8 -9 -46 -13 -107 -13 -72 0 -92 3 -86 13
6 10 4 10 -7 0 -7 -7 -37 -13 -67 -13 -40 0 -51 3 -46 13 6 10 4 10 -7 0 -7
-7 -37 -13 -67 -13 -40 0 -51 3 -46 13 6 9 5 9 -7 1 -21 -17 -442 -18 -433 -1
5 9 3 9 -7 0 -7 -7 -37 -13 -67 -13 -40 0 -51 3 -46 13 6 10 4 10 -7 0 -7 -7
-37 -13 -67 -13 -40 0 -51 3 -46 13 6 10 4 10 -7 0 -7 -7 -37 -13 -67 -13 -40
0 -51 3 -46 13 6 9 5 9 -7 0 -20 -16 -562 -16 -553 0 5 8 2 7 -7 0 -7 -7 -37
-13 -67 -13 -40 0 -51 3 -46 13 6 10 4 10 -7 0 -8 -9 -46 -13 -107 -13 -72 0
-92 3 -86 13 6 10 4 10 -7 0 -7 -7 -37 -13 -67 -13 -40 0 -51 3 -46 13 6 10 4
10 -7 0 -7 -7 -37 -13 -67 -13 -40 0 -51 3 -46 13 6 9 5 9 -7 1 -21 -17 -442
-18 -433 -1 5 9 3 9 -7 0 -7 -7 -37 -13 -67 -13 -40 0 -51 3 -46 13 6 10 4 10
-7 0 -7 -7 -37 -13 -67 -13 -40 0 -51 3 -46 13 6 10 4 10 -7 0 -7 -7 -37 -13
-67 -13 -40 0 -51 3 -46 13 6 9 5 9 -7 0 -20 -16 -562 -16 -553 0 5 8 2 7 -7
0 -7 -7 -37 -13 -67 -13 -40 0 -51 3 -46 13 6 10 4 10 -7 0 -8 -9 -46 -13
-107 -13 -72 0 -92 3 -86 13 6 10 4 10 -7 0 -7 -7 -37 -13 -67 -13 -40 0 -51
3 -46 13 6 10 4 10 -7 0 -7 -7 -37 -13 -67 -13 -40 0 -51 3 -46 13 6 9 5 9 -7
1 -18 -15 -443 -18 -434 -4 4 6 4 10 1 10 -3 0 -7 -4 -11 -10z"/>
<path d="M320 600 c-9 -6 -10 -10 -3 -10 6 0 15 5 18 10 8 12 4 12 -15 0z"/>
<path d="M555 331 c-3 -5 -2 -12 3 -15 5 -3 9 1 9 9 0 17 -3 19 -12 6z"/>
<path d="M980 320 c-9 -6 -10 -10 -3 -10 6 0 15 5 18 10 8 12 4 12 -15 0z"/>
<path d="M2190 320 c0 -5 5 -10 11 -10 5 0 7 5 4 10 -3 6 -8 10 -11 10 -2 0
-4 -4 -4 -10z"/>
<path d="M2900 320 c-9 -6 -10 -10 -3 -10 6 0 15 5 18 10 8 12 4 12 -15 0z"/>
<path d="M4110 320 c0 -5 5 -10 11 -10 5 0 7 5 4 10 -3 6 -8 10 -11 10 -2 0
-4 -4 -4 -10z"/>
<path d="M4820 320 c-9 -6 -10 -10 -3 -10 6 0 15 5 18 10 8 12 4 12 -15 0z"/>
<path d="M6030 320 c0 -5 5 -10 11 -10 5 0 7 5 4 10 -3 6 -8 10 -11 10 -2 0
-4 -4 -4 -10z"/>
<path d="M6740 320 c-9 -6 -10 -10 -3 -10 6 0 15 5 18 10 8 12 4 12 -15 0z"/>
<path d="M7950 320 c0 -5 5 -10 11 -10 5 0 7 5 4 10 -3 6 -8 10 -11 10 -2 0
-4 -4 -4 -10z"/>
<path d="M8660 320 c-9 -6 -10 -10 -3 -10 6 0 15 5 18 10 8 12 4 12 -15 0z"/>
<path d="M9870 320 c0 -5 5 -10 11 -10 5 0 7 5 4 10 -3 6 -8 10 -11 10 -2 0
-4 -4 -4 -10z"/>
</g>
</svg>
