<?xml version="1.0" standalone="no"?>
<!DOCTYPE svg PUBLIC "-//W3C//DTD SVG 20010904//EN"
 "http://www.w3.org/TR/2001/REC-SVG-20010904/DTD/svg10.dtd">
<svg version="1.0" xmlns="http://www.w3.org/2000/svg"
 width="549.000000pt" height="549.000000pt" viewBox="0 0 549.000000 549.000000"
 preserveAspectRatio="xMidYMid meet">
<metadata>
Created by potrace 1.14, written by Peter Selinger 2001-2017
</metadata>
<g transform="translate(0.000000,549.000000) scale(0.100000,-0.100000)"
fill="#000000" stroke="none">
<path d="M2926 5358 c4 -7 20 -31 34 -53 36 -53 85 -151 126 -250 18 -44 33
-75 34 -69 0 20 -37 118 -70 184 -33 66 -118 200 -126 200 -3 0 -2 -6 2 -12z"/>
<path d="M2667 5273 c18 -2 50 -2 70 0 21 2 7 4 -32 4 -38 0 -55 -2 -38 -4z"/>
<path d="M3081 5265 c0 -11 8 -47 19 -80 14 -44 18 -50 13 -22 -7 51 -32 127
-32 102z"/>
<path d="M3122 5090 c0 -14 2 -19 5 -12 2 6 2 18 0 25 -3 6 -5 1 -5 -13z"/>
<path d="M4154 5048 l-29 -33 33 29 c17 17 32 31 32 33 0 8 -8 1 -36 -29z"/>
<path d="M3132 5035 c0 -16 2 -22 5 -12 2 9 2 23 0 30 -3 6 -5 -1 -5 -18z"/>
<path d="M3136 4933 c-3 -16 -5 -46 -5 -69 1 -23 -2 -52 -5 -65 -6 -21 -5 -22
4 -6 7 10 14 52 17 93 6 74 0 99 -11 47z"/>
<path d="M1349 4808 c-26 -24 -66 -68 -89 -98 -46 -59 -33 -47 75 68 77 81 82
93 14 30z"/>
<path d="M3635 4800 c27 -12 43 -12 25 0 -8 5 -22 9 -30 9 -10 0 -8 -3 5 -9z"/>
<path d="M796 4772 l-19 -27 24 22 c12 12 21 24 18 27 -2 2 -13 -8 -23 -22z"/>
<path d="M3714 4767 c102 -58 194 -127 241 -182 80 -90 119 -132 104 -110 -34
51 -147 170 -198 209 -59 45 -161 106 -177 106 -5 -1 8 -11 30 -23z"/>
<path d="M4150 4737 c24 -26 48 -47 53 -47 14 0 -11 27 -57 62 l-41 32 45 -47z"/>
<path d="M4260 4614 c42 -61 110 -148 110 -140 0 9 -121 175 -133 183 -5 3 5
-16 23 -43z"/>
<path d="M1189 4623 l-24 -28 28 24 c25 23 32 31 24 31 -2 0 -14 -12 -28 -27z"/>
<path d="M4100 4620 c0 -5 5 -10 12 -10 9 0 9 -3 0 -12 -15 -15 -16 -58 -2
-58 6 0 10 -4 10 -9 0 -4 -11 -7 -25 -6 -24 3 -24 2 -10 -25 8 -16 19 -32 25
-35 15 -9 12 4 -5 21 -8 9 -15 20 -15 25 0 11 20 12 20 2 0 -5 14 -24 31 -43
20 -24 25 -26 14 -9 -9 16 -13 34 -8 45 6 17 5 18 -12 4 -16 -13 -18 -13 -13
0 8 24 33 18 33 -9 0 -13 6 -26 12 -28 23 -8 6 85 -23 123 -26 34 -44 44 -44
24z m30 -51 c0 -6 -4 -7 -10 -4 -5 3 -10 11 -10 16 0 6 5 7 10 4 6 -3 10 -11
10 -16z"/>
<path d="M2240 4582 c-100 -51 -217 -161 -268 -251 -31 -56 -20 -52 16 7 16
26 56 75 88 110 46 50 71 68 114 82 30 11 48 20 40 20 -8 0 3 10 24 20 22 11
41 22 44 25 12 12 -25 3 -58 -13z"/>
<path d="M3410 4592 c8 -5 31 -12 51 -16 21 -4 53 -17 72 -30 20 -14 52 -32
72 -42 20 -9 49 -33 66 -53 65 -81 70 -87 60 -66 -34 69 -123 150 -207 185
-49 21 -141 39 -114 22z"/>
<path d="M4070 4447 c0 -4 10 -24 23 -45 12 -20 40 -74 62 -119 21 -46 40 -81
42 -79 5 5 -104 227 -117 240 -6 6 -10 7 -10 3z"/>
<path d="M4468 4303 c40 -78 53 -96 87 -113 l40 -21 -42 36 c-23 20 -54 60
-69 89 -15 29 -35 64 -45 77 -11 13 2 -18 29 -68z"/>
<path d="M1930 4260 c-6 -11 -8 -20 -6 -20 3 0 10 9 16 20 6 11 8 20 6 20 -3
0 -10 -9 -16 -20z"/>
<path d="M5397 4165 c-20 -41 -35 -75 -32 -75 7 0 77 141 73 146 -2 2 -21 -30
-41 -71z"/>
<path d="M1906 4213 c-6 -14 -5 -15 5 -6 7 7 10 15 7 18 -3 3 -9 -2 -12 -12z"/>
<path d="M4527 4178 c23 -30 86 -207 109 -306 51 -222 55 -269 64 -717 5 -236
7 -431 5 -434 -3 -2 -5 9 -5 26 0 17 -6 43 -14 57 -11 23 -15 24 -20 10 -6
-16 -8 -15 -21 2 -13 18 -14 18 -20 2 -11 -29 -33 -21 -46 17 -7 19 -17 35
-21 35 -4 0 -8 24 -9 53 -1 39 -3 46 -8 27 -5 -18 -11 3 -20 75 -12 99 -78
415 -88 425 -6 6 -2 -24 32 -205 66 -350 95 -511 115 -630 12 -71 30 -148 41
-171 10 -22 19 -46 19 -52 0 -34 135 -411 154 -429 4 -4 3 4 -2 17 -12 31 -25
120 -18 120 3 0 12 -21 20 -47 15 -53 41 -118 80 -206 15 -32 21 -55 15 -51
-6 3 -4 -4 4 -17 9 -13 25 -47 36 -75 33 -87 141 -297 159 -311 9 -8 11 -12 4
-8 -7 4 10 -35 37 -87 47 -89 161 -339 161 -354 0 -12 113 -244 117 -241 2 2
-14 42 -35 88 -22 46 -65 145 -97 219 -31 74 -63 149 -70 165 -46 106 -175
440 -175 451 0 2 8 0 18 -3 10 -4 7 3 -10 18 -32 29 -70 129 -161 424 -108
348 -147 534 -146 689 l1 101 22 -110 22 -110 59 -60 c32 -33 55 -53 51 -45
-4 8 2 4 13 -10 11 -14 21 -31 21 -37 0 -7 5 -13 11 -13 7 0 9 9 4 23 -3 12
-11 40 -16 62 -6 22 -17 60 -26 85 -8 25 -26 83 -39 130 -42 155 -87 300 -91
296 -3 -2 1 -32 8 -65 14 -72 6 -92 -12 -32 -7 23 -15 38 -18 32 -10 -15 -12
95 -5 219 l6 115 43 -90 c39 -83 114 -209 205 -345 32 -47 40 -73 60 -180 82
-451 145 -639 357 -1082 37 -76 68 -136 70 -135 4 5 -44 126 -56 141 -5 6 -27
54 -49 106 -22 52 -63 149 -92 214 -28 66 -54 135 -57 153 -3 18 -10 33 -15
33 -5 0 -6 10 -3 21 4 13 3 19 -3 15 -5 -3 -10 12 -10 37 -1 24 -6 54 -11 68
-12 31 -13 6 -2 -45 13 -55 -2 -31 -22 34 -28 94 -86 475 -74 486 4 4 48 -58
93 -131 48 -78 76 -141 88 -198 22 -98 18 -33 -4 83 -12 58 -22 117 -24 131
-10 64 -151 311 -267 465 -136 181 -225 383 -305 694 -57 217 -115 380 -136
380 -7 0 -7 -4 -1 -12z m190 -1655 c-2 -21 -4 -6 -4 32 0 39 2 55 4 38 2 -18
2 -50 0 -70z m353 -1078 c0 -5 -5 -3 -10 5 -5 8 -10 20 -10 25 0 6 5 3 10 -5
5 -8 10 -19 10 -25z"/>
<path d="M4220 4147 c0 -5 29 -95 65 -202 35 -106 81 -258 101 -337 20 -78 38
-145 41 -148 19 -19 -60 277 -123 465 -47 139 -83 235 -84 222z"/>
<path d="M4728 4083 c37 -47 61 -67 43 -37 -15 26 -33 46 -56 64 -11 8 -5 -4
13 -27z"/>
<path d="M3870 4056 c0 -17 43 -176 47 -173 4 5 -36 169 -43 176 -2 2 -4 1 -4
-3z"/>
<path d="M5230 3873 c-35 -35 -35 -36 -4 -15 34 23 61 52 48 51 -5 0 -25 -16
-44 -36z"/>
<path d="M5252 3840 c0 -14 2 -19 5 -12 2 6 2 18 0 25 -3 6 -5 1 -5 -13z"/>
<path d="M5242 3775 c0 -16 2 -22 5 -12 2 9 2 23 0 30 -3 6 -5 -1 -5 -18z"/>
<path d="M3219 3653 c-1 -80 -16 -190 -45 -323 -3 -14 -3 -22 1 -18 9 9 65
228 65 255 0 13 3 23 8 23 28 0 179 -371 207 -510 2 -8 6 -23 10 -32 4 -10 4
-18 1 -18 -10 0 -81 37 -154 81 -59 35 -63 36 -32 10 19 -17 74 -51 122 -77
48 -26 86 -49 84 -53 -2 -3 5 -42 15 -86 18 -79 18 -79 12 -20 -3 33 -9 70
-14 83 -12 30 0 28 38 -8 18 -17 35 -30 38 -30 3 0 18 -6 33 -14 23 -12 30
-27 51 -110 13 -53 26 -94 29 -92 4 5 -25 146 -36 176 -5 12 -2 12 18 -2 45
-31 140 -87 140 -83 0 3 -37 29 -83 59 l-83 54 -49 176 c-27 96 -50 174 -52
172 -2 -1 0 -52 4 -112 4 -60 9 -99 11 -86 6 38 17 25 40 -46 29 -90 28 -98
-5 -75 -16 10 -45 28 -66 38 -24 13 -40 29 -44 45 -17 74 -73 236 -138 400
-95 238 -108 270 -117 270 -5 0 -8 -21 -9 -47z"/>
<path d="M5185 3574 c-18 -44 -12 -60 7 -18 7 16 17 32 21 35 5 4 4 9 -2 13
-6 4 -17 -9 -26 -30z"/>
<path d="M1251 3561 c-26 -16 -4 -69 51 -127 29 -31 54 -58 55 -62 2 -4 -32
-27 -75 -51 -98 -56 -112 -69 -112 -98 0 -50 29 -42 167 47 l78 50 18 -25 c10
-14 23 -22 28 -19 5 3 9 2 8 -3 -1 -4 28 -39 65 -78 l68 -70 19 24 c22 27 23
25 -71 130 -36 40 -66 76 -68 80 -1 3 12 15 30 25 120 67 157 93 162 110 5 19
-9 46 -23 46 -3 0 -56 -29 -116 -65 l-109 -65 -56 55 c-31 31 -60 52 -65 48
-4 -5 -5 -3 -2 3 6 11 -19 54 -31 54 -4 0 -13 -4 -21 -9z"/>
<path d="M2501 3376 c-18 -56 -44 -126 -58 -156 -13 -30 -29 -64 -33 -75 -5
-11 -27 -59 -49 -107 -22 -49 -37 -88 -35 -88 3 0 31 52 62 116 31 64 67 135
79 158 12 22 29 62 38 89 9 26 20 45 24 43 4 -3 13 -29 20 -58 12 -56 65 -211
56 -168 -5 29 -42 210 -59 291 l-11 56 -34 -101z"/>
<path d="M3052 3334 c-1 -66 -4 -170 -6 -230 l-5 -109 10 90 c5 50 8 153 6
230 l-3 140 -2 -121z"/>
<path d="M1231 3424 c0 -11 3 -14 6 -6 3 7 2 16 -1 19 -3 4 -6 -2 -5 -13z"/>
<path d="M2280 3414 c0 -33 -66 -179 -116 -260 -32 -52 -57 -81 -78 -90 -19
-8 -24 -13 -13 -14 9 0 17 -3 17 -7 0 -3 -28 -47 -62 -97 -34 -50 -54 -85 -44
-77 9 8 42 52 73 98 41 61 68 90 96 105 30 15 42 17 47 8 5 -9 9 -9 14 -1 4 6
1 11 -6 12 -7 0 0 6 16 13 17 8 24 15 16 18 -10 3 -5 37 20 151 18 81 30 151
26 154 -3 4 -6 -2 -6 -13z m-54 -231 c-3 -10 -8 -30 -11 -45 -5 -18 -17 -30
-37 -37 -43 -15 -44 -15 -10 23 17 19 33 44 37 55 8 25 29 28 21 4z"/>
<path d="M3845 3130 c0 -305 -2 -340 -31 -523 -9 -54 -14 -101 -11 -103 5 -6
37 175 37 213 0 30 16 56 18 30 0 -7 5 -74 10 -150 5 -76 13 -141 17 -145 4
-4 5 64 1 150 -4 86 -11 286 -17 445 -15 407 -24 440 -24 83z"/>
<path d="M5379 3341 c19 -17 37 -28 40 -26 5 6 -23 30 -54 46 -11 5 -5 -4 14
-20z"/>
<path d="M1211 3334 c0 -11 3 -14 6 -6 3 7 2 16 -1 19 -3 4 -6 -2 -5 -13z"/>
<path d="M5465 3250 c10 -11 20 -20 23 -20 3 0 -3 9 -13 20 -10 11 -20 20 -23
20 -3 0 3 -9 13 -20z"/>
<path d="M1846 3034 c-48 -110 -52 -124 -32 -96 10 12 23 22 31 22 8 0 17 5
21 12 5 8 2 9 -9 5 -20 -7 -23 8 -4 20 13 8 43 110 35 119 -3 2 -22 -35 -42
-82z"/>
<path d="M3090 3048 c-12 -35 -31 -81 -41 -102 -20 -41 -27 -87 -10 -56 16 27
82 212 78 216 -2 3 -14 -24 -27 -58z"/>
<path d="M4751 3094 c0 -11 3 -14 6 -6 3 7 2 16 -1 19 -3 4 -6 -2 -5 -13z"/>
<path d="M2015 3035 c-25 -12 -26 -14 -5 -9 14 4 29 10 35 15 12 12 5 11 -30
-6z"/>
<path d="M1591 3014 c0 -11 3 -14 6 -6 3 7 2 16 -1 19 -3 4 -6 -2 -5 -13z"/>
<path d="M2163 2928 c-17 -57 -30 -104 -28 -106 5 -5 66 189 63 199 -2 5 -17
-37 -35 -93z"/>
<path d="M2301 3009 c-5 -13 -25 -53 -45 -88 -39 -68 -43 -93 -6 -39 18 28 21
29 16 9 -10 -49 12 -4 32 64 20 67 22 103 3 54z"/>
<path d="M1950 3010 c-8 -5 -10 -10 -5 -10 6 0 17 5 25 10 8 5 11 10 5 10 -5
0 -17 -5 -25 -10z"/>
<path d="M1583 2925 c0 -22 2 -30 4 -17 2 12 2 30 0 40 -3 9 -5 -1 -4 -23z"/>
<path d="M2651 2944 c0 -11 3 -14 6 -6 3 7 2 16 -1 19 -3 4 -6 -2 -5 -13z"/>
<path d="M401 2934 c0 -11 3 -14 6 -6 3 7 2 16 -1 19 -3 4 -6 -2 -5 -13z"/>
<path d="M1721 2904 c0 -11 3 -14 6 -6 3 7 2 16 -1 19 -3 4 -6 -2 -5 -13z"/>
<path d="M2671 2874 c0 -11 3 -14 6 -6 3 7 2 16 -1 19 -3 4 -6 -2 -5 -13z"/>
<path d="M381 2864 c0 -11 3 -14 6 -6 3 7 2 16 -1 19 -3 4 -6 -2 -5 -13z"/>
<path d="M1708 2847 c-3 -19 -2 -25 4 -19 6 6 8 18 6 28 -3 14 -5 12 -10 -9z"/>
<path d="M1767 2858 c-3 -7 -17 -39 -31 -70 -14 -32 -24 -58 -21 -58 7 0 66
132 61 137 -2 2 -6 -2 -9 -9z"/>
<path d="M366 2814 c-4 -14 -5 -28 -3 -31 3 -2 8 8 11 23 4 14 5 28 3 31 -3 2
-8 -8 -11 -23z"/>
<path d="M2246 2815 c-9 -26 -7 -32 5 -12 6 10 9 21 6 23 -2 3 -7 -2 -11 -11z"/>
<path d="M4372 2775 c0 -16 2 -22 5 -12 2 9 2 23 0 30 -3 6 -5 -1 -5 -18z"/>
<path d="M2943 2737 c1 -34 -3 -61 -10 -65 -6 -4 -14 -21 -18 -37 -5 -24 -4
-27 5 -12 6 9 16 17 21 17 6 0 8 -8 5 -17 -3 -10 -1 -25 4 -33 12 -19 12 94 0
160 l-8 45 1 -58z"/>
<path d="M1692 2750 c0 -14 2 -19 5 -12 2 6 2 18 0 25 -3 6 -5 1 -5 -13z"/>
<path d="M2717 2699 c3 -30 9 -70 14 -89 7 -26 8 -17 4 37 -2 40 -8 80 -13 89
-6 11 -8 -1 -5 -37z"/>
<path d="M201 2704 c0 -11 3 -14 6 -6 3 7 2 16 -1 19 -3 4 -6 -2 -5 -13z"/>
<path d="M4385 2660 c13 -151 17 -646 6 -777 -14 -174 -44 -355 -76 -459 -14
-45 -20 -80 -15 -82 6 -2 10 -11 10 -19 0 -9 12 -42 27 -75 18 -41 30 -57 41
-53 8 3 16 -3 19 -16 3 -11 11 -18 18 -15 13 5 15 -11 2 -30 -3 -6 2 -19 13
-29 20 -18 24 -15 20 19 -1 10 3 15 8 12 6 -4 13 -2 16 3 4 5 1 13 -5 17 -8 5
-9 3 -4 -6 5 -9 4 -11 -4 -6 -20 13 -5 243 27 436 60 349 59 316 13 560 -69
365 -124 609 -116 520z m56 -1547 c13 -16 12 -17 -3 -4 -10 7 -18 15 -18 17 0
8 8 3 21 -13z"/>
<path d="M4910 2705 c0 -5 5 -17 10 -25 5 -8 10 -10 10 -5 0 6 -5 17 -10 25
-5 8 -10 11 -10 5z"/>
<path d="M1687 2693 c-4 -3 -7 -18 -6 -32 1 -26 1 -25 10 3 9 31 7 41 -4 29z"/>
<path d="M191 2664 c0 -11 3 -14 6 -6 3 7 2 16 -1 19 -3 4 -6 -2 -5 -13z"/>
<path d="M4930 2649 c0 -34 78 -304 86 -296 4 4 -74 298 -81 306 -3 2 -5 -2
-5 -10z"/>
<path d="M5251 2645 c0 -5 8 -26 19 -45 11 -19 19 -30 19 -25 0 6 -8 26 -19
45 -11 19 -19 31 -19 25z"/>
<path d="M175 2610 c-4 -17 -5 -34 -2 -36 2 -3 7 10 11 27 8 42 0 50 -9 9z"/>
<path d="M574 2604 c-4 -22 -30 -122 -59 -224 -78 -275 -242 -674 -432 -1055
-85 -170 -105 -228 -30 -90 29 55 87 154 127 220 86 140 205 389 194 406 -4 7
-3 9 3 6 17 -11 56 90 44 111 -8 12 -10 13 -11 3 0 -8 -2 -12 -5 -9 -3 2 4 22
14 44 43 89 140 404 156 508 9 59 15 110 12 113 -3 3 -9 -12 -13 -33z m-164
-653 c0 -6 -4 -13 -10 -16 -5 -3 -10 1 -10 9 0 9 5 16 10 16 6 0 10 -4 10 -9z"/>
<path d="M1122 2615 c0 -16 2 -22 5 -12 2 9 2 23 0 30 -3 6 -5 -1 -5 -18z"/>
<path d="M1672 2610 c0 -14 2 -19 5 -12 2 6 2 18 0 25 -3 6 -5 1 -5 -13z"/>
<path d="M3717 2545 c3 -33 7 -62 9 -64 8 -8 2 74 -7 99 -5 16 -6 4 -2 -35z"/>
<path d="M2687 2528 c-9 -29 -15 -54 -13 -56 2 -2 12 20 21 48 9 28 15 53 13
55 -2 3 -12 -19 -21 -47z"/>
<path d="M2743 2490 c0 -41 2 -58 4 -37 2 20 2 54 0 75 -2 20 -4 3 -4 -38z"/>
<path d="M1113 2515 c0 -22 2 -30 4 -17 2 12 2 30 0 40 -3 9 -5 -1 -4 -23z"/>
<path d="M130 2435 c-13 -52 -21 -98 -18 -100 3 -3 14 39 26 92 12 53 20 98
18 100 -2 3 -14 -39 -26 -92z"/>
<path d="M4035 2393 c-4 -49 -9 -97 -11 -108 -2 -11 -6 -42 -9 -70 l-5 -50 15
60 c14 62 32 255 23 255 -3 0 -9 -39 -13 -87z"/>
<path d="M926 2373 c-10 -31 -41 -110 -68 -177 -28 -67 -70 -179 -95 -251 -24
-71 -48 -132 -52 -135 -10 -6 -19 -68 -22 -155 -2 -43 -5 -29 -9 50 l-6 110
-2 -125 c-2 -108 27 -382 41 -396 2 -2 10 21 17 51 7 31 16 51 20 45 4 -7 10
11 14 39 4 27 11 53 15 56 5 3 9 35 10 73 2 201 57 515 137 780 14 46 24 85
22 88 -3 2 -12 -22 -22 -53z m-229 -890 c-3 -10 -5 -2 -5 17 0 19 2 27 5 18 2
-10 2 -26 0 -35z m48 -31 c-14 -29 -26 -69 -26 -89 l-1 -38 -9 40 c-13 63 -11
75 8 68 11 -4 14 -3 9 5 -6 10 33 76 41 69 1 -2 -8 -27 -22 -55z"/>
<path d="M5151 2379 c0 -13 4 -33 9 -44 7 -14 8 -8 3 20 -7 46 -13 59 -12 24z"/>
<path d="M1049 2333 c-32 -76 -34 -81 -17 -58 17 24 50 106 45 111 -2 2 -14
-22 -28 -53z"/>
<path d="M5282 2355 c-1 -11 3 -38 7 -60 7 -34 9 -35 9 -10 0 35 -15 101 -16
70z"/>
<path d="M4613 2330 c21 -136 31 -309 30 -520 0 -229 -4 -278 -37 -500 -3 -19
1 -11 8 18 8 30 19 102 26 160 19 178 21 192 31 192 5 0 9 -8 9 -18 0 -10 6
-26 13 -36 12 -16 13 -16 14 6 4 63 -22 336 -33 360 -8 14 -18 79 -25 145 -11
124 -25 213 -35 222 -3 3 -4 -10 -1 -29z"/>
<path d="M1830 2340 c-52 -4 -103 -11 -112 -15 -20 -8 -23 -21 -9 -29 5 -3 7
-14 4 -25 -3 -11 2 -21 11 -24 18 -7 546 20 569 29 14 5 14 9 0 40 l-17 34
-175 -2 c-97 0 -219 -4 -271 -8z"/>
<path d="M3896 2285 c-10 -36 -26 -79 -36 -97 -9 -18 -20 -44 -24 -58 -6 -24
-6 -24 9 3 9 15 18 27 22 27 3 0 3 -44 -1 -97 -4 -54 -5 -96 -3 -93 3 3 10 64
16 135 6 72 18 151 27 178 9 26 14 52 12 57 -2 6 -12 -19 -22 -55z"/>
<path d="M631 2324 c0 -11 3 -14 6 -6 3 7 2 16 -1 19 -3 4 -6 -2 -5 -13z"/>
<path d="M1591 2324 c0 -11 3 -14 6 -6 3 7 2 16 -1 19 -3 4 -6 -2 -5 -13z"/>
<path d="M5191 2325 c-2 -25 42 -161 55 -175 8 -8 21 -24 28 -34 20 -30 24 -6
10 61 -8 39 -21 71 -36 86 -13 13 -31 34 -40 47 -9 14 -17 20 -17 15z"/>
<path d="M101 2304 c0 -11 3 -14 6 -6 3 7 2 16 -1 19 -3 4 -6 -2 -5 -13z"/>
<path d="M3258 2293 c7 -3 16 -2 19 1 4 3 -2 6 -13 5 -11 0 -14 -3 -6 -6z"/>
<path d="M621 2274 c0 -11 3 -14 6 -6 3 7 2 16 -1 19 -3 4 -6 -2 -5 -13z"/>
<path d="M3315 2280 c17 -4 39 -8 50 -8 16 0 15 2 -5 8 -14 4 -36 8 -50 8 -22
0 -22 -1 5 -8z"/>
<path d="M91 2264 c0 -11 3 -14 6 -6 3 7 2 16 -1 19 -3 4 -6 -2 -5 -13z"/>
<path d="M4236 2123 c-12 -302 -33 -474 -87 -713 -39 -174 -91 -329 -136 -407
-38 -65 -51 -76 -32 -27 38 100 50 200 54 449 2 138 0 205 -3 150 -4 -55 -11
-106 -16 -114 -5 -7 -12 -46 -17 -85 -22 -202 -116 -474 -210 -613 -47 -70
-119 -152 -143 -165 -12 -7 -6 5 16 28 65 68 123 152 173 252 62 125 87 199
119 347 14 66 29 130 32 143 13 47 -7 17 -72 -105 -37 -71 -98 -182 -135 -248
-37 -66 -96 -178 -130 -249 l-64 -129 -3 -103 c-5 -132 16 -227 65 -290 25
-34 29 -42 13 -34 -11 6 -31 28 -44 48 -39 64 -53 120 -52 219 1 51 -2 89 -6
85 -16 -17 -58 -221 -59 -286 l-1 -71 -14 34 c-37 84 -25 321 26 525 11 44 18
81 16 83 -6 7 -94 -212 -116 -288 -11 -41 -23 -113 -27 -161 -3 -49 -9 -88
-13 -88 -23 0 -26 218 -5 335 8 43 12 81 10 83 -2 2 -10 -23 -19 -55 -9 -32
-24 -83 -34 -113 -12 -38 -17 -88 -17 -162 0 -58 -3 -101 -6 -95 -38 72 -1
301 71 447 15 30 38 91 50 135 12 44 40 128 61 186 21 59 39 112 39 118 0 7 4
9 10 6 5 -3 7 0 5 7 -8 20 71 274 95 308 11 16 34 62 51 102 40 98 69 145 122
198 34 33 47 55 51 85 5 36 5 37 -4 10 -5 -16 -33 -57 -61 -89 -30 -35 -77
-112 -115 -188 -77 -154 -110 -189 -239 -255 -52 -26 -92 -49 -91 -51 2 -1 33
11 70 28 36 17 71 28 77 24 8 -5 6 -10 -5 -16 -9 -5 -21 -6 -26 -3 -6 3 -10 1
-10 -4 0 -6 3 -11 8 -11 4 0 8 -18 9 -40 2 -22 -1 -39 -5 -39 -4 1 -9 1 -12
-1 -23 -8 -50 -8 -50 1 0 6 -7 8 -16 5 -12 -5 -14 -1 -10 17 3 12 -3 4 -14
-18 -10 -22 -22 -65 -26 -95 -6 -44 -9 -50 -14 -30 -4 14 -3 33 2 43 5 11 5
17 -2 17 -5 0 -10 -4 -10 -10 0 -5 -4 -10 -10 -10 -5 0 -6 7 -3 17 4 11 3 14
-5 9 -7 -4 -14 4 -18 21 -12 55 -15 60 -26 33 -5 -14 -20 -36 -33 -50 -13 -14
-31 -38 -39 -55 l-16 -30 0 53 c0 28 -2 52 -5 52 -2 0 -33 -20 -68 -45 -36
-25 -69 -45 -73 -45 -5 0 2 7 14 16 12 8 20 20 17 25 -4 5 2 6 12 2 15 -6 16
-4 5 9 -11 13 -10 16 4 14 9 0 19 5 22 13 3 10 -2 11 -19 6 -13 -4 -26 -12
-29 -16 -24 -37 -107 -129 -117 -129 -7 0 -13 20 -15 53 l-3 52 -26 -50 -27
-50 -9 45 c-7 37 -6 46 6 53 20 9 -87 -1 -125 -13 l-29 -8 35 -1 c71 -2 80 -9
80 -57 0 -40 -3 -45 -33 -58 -43 -17 -100 -68 -127 -111 l-20 -33 -37 19 c-52
27 -95 24 -133 -7 -17 -15 -32 -25 -34 -23 -1 2 -17 25 -34 50 -60 89 -150
152 -219 151 l-31 0 5 102 c3 55 6 102 8 103 1 2 16 -2 35 -7 53 -15 22 5 -68
43 -82 35 -110 37 -32 2 36 -16 40 -21 39 -54 0 -28 -2 -32 -8 -16 -5 11 -7
23 -5 26 2 3 -3 6 -11 6 -8 0 -15 -9 -15 -21 0 -15 -3 -17 -12 -8 -14 14 -32
16 -24 4 3 -5 1 -22 -4 -38 -8 -28 -8 -28 -9 -4 -1 14 -6 32 -11 40 -9 13 -12
13 -24 -2 -19 -26 -26 -22 -17 10 14 48 -1 56 -22 10 -11 -23 -19 -47 -18 -53
1 -5 -3 -4 -10 3 -7 6 -18 12 -23 12 -6 0 -5 -4 3 -9 8 -5 9 -11 3 -15 -5 -3
-12 1 -16 9 -3 8 -1 17 4 20 6 4 10 12 10 18 0 7 -4 6 -10 -3 -7 -12 -11 -10
-19 10 -5 14 -27 68 -49 120 -22 52 -38 97 -36 99 2 2 17 -8 35 -23 17 -15 45
-33 63 -42 31 -14 31 -14 6 3 -48 35 -94 79 -122 117 -15 21 -28 37 -28 35 0
-2 16 -47 36 -99 131 -350 185 -547 183 -667 0 -32 -3 -52 -6 -45 -7 17 -23
15 -23 -3 0 -25 -60 -129 -89 -155 -18 -16 -35 -46 -46 -85 -9 -32 -27 -80
-40 -105 -23 -46 -75 -103 -75 -82 0 6 4 13 9 16 12 8 30 82 36 156 l5 65 -29
-74 c-31 -74 -43 -90 -96 -117 l-30 -15 27 21 c38 29 85 101 104 159 15 48 15
49 -15 122 -17 41 -54 115 -81 164 -149 269 -190 367 -221 523 -6 34 -13 61
-16 59 -2 -2 2 -48 8 -103 21 -197 7 -418 -31 -494 -17 -32 -80 -102 -80 -87
0 3 13 25 29 49 55 83 66 130 64 268 -2 147 -29 286 -54 284 -9 -1 -16 6 -15
15 0 8 -6 16 -14 16 -8 0 -15 5 -15 10 0 6 -10 26 -22 46 -80 128 -134 329
-149 549 -6 93 -7 96 -44 135 -41 43 -66 84 -61 100 9 33 -23 -21 -52 -90 -40
-90 -84 -275 -93 -389 -7 -78 -1 -96 17 -49 5 15 13 22 18 17 5 -5 20 -74 35
-154 45 -253 46 -256 40 -175 -3 39 -7 81 -10 95 -4 21 -4 22 6 8 6 -10 12
-31 13 -47 3 -37 9 -31 24 22 l11 42 1 -64 c2 -106 10 -64 12 57 0 62 4 112 8
112 3 0 12 -19 19 -42 8 -24 19 -49 25 -56 6 -8 26 -46 44 -85 17 -40 38 -72
45 -72 14 -1 28 14 28 30 0 6 -5 3 -11 -5 -8 -12 -9 -10 -4 7 3 12 1 24 -5 28
-5 3 -10 16 -9 28 1 21 1 21 7 2 11 -34 45 -65 70 -65 19 0 23 -4 19 -20 -3
-11 -1 -23 4 -26 8 -5 13 10 10 29 -1 5 3 6 9 2 5 -3 10 -14 10 -25 0 -10 7
-20 14 -23 12 -5 13 -13 6 -37 -6 -21 -5 -28 2 -24 17 10 2 -64 -26 -138 -20
-51 -25 -57 -25 -34 -1 37 -38 160 -62 207 -10 20 -16 39 -13 42 3 2 -2 7 -11
11 -12 4 -15 1 -10 -12 5 -16 -1 -19 -41 -20 -25 -1 -52 -9 -61 -17 -8 -8 -23
-15 -34 -15 -16 0 -19 8 -20 43 l-1 42 -8 -45 c-5 -25 -13 -56 -19 -70 -10
-23 -11 -23 -9 12 1 20 -1 40 -5 44 -4 4 -7 0 -7 -8 0 -11 -16 -17 -60 -22
-74 -9 -68 -8 -107 -16 -19 -5 -36 -3 -42 3 -6 6 -2 -20 8 -57 22 -78 61 -140
110 -173 19 -13 29 -23 22 -23 -26 0 -69 30 -94 67 -31 45 -77 147 -77 170 0
9 -3 13 -8 9 -4 -4 -7 -13 -7 -18 0 -6 -6 -13 -14 -16 -9 -3 -11 0 -6 9 16 24
-54 -31 -74 -60 -25 -35 -47 -118 -61 -222 -7 -63 -6 -99 10 -191 16 -99 17
-116 4 -135 -8 -13 -19 -23 -24 -23 -5 0 -12 -9 -15 -20 -3 -11 -13 -20 -20
-20 -8 0 -17 -5 -21 -12 -5 -7 -2 -9 7 -4 8 4 7 2 -2 -6 -20 -17 -46 -67 -71
-137 -19 -55 -47 -263 -48 -349 l0 -42 914 0 c716 0 916 3 919 13 4 9 6 9 6 0
1 -18 227 -18 234 -1 4 10 6 10 6 1 1 -10 50 -13 211 -13 161 0 210 3 210 13
0 8 3 9 8 1 4 -7 53 -12 131 -13 104 -2 126 1 142 15 11 9 19 12 19 6 0 -6 -6
-13 -12 -15 -8 -4 -7 -6 4 -6 9 -1 19 5 21 12 4 9 6 9 6 0 1 -10 151 -13 716
-13 l714 0 10 38 c6 20 11 114 11 207 0 167 -1 171 -29 230 -16 33 -36 69 -46
80 -9 11 -4 -2 10 -30 28 -51 20 -45 -38 27 -16 21 -27 47 -27 64 1 30 -43
230 -60 274 -5 14 -14 37 -19 52 l-10 28 -103 -50 c-57 -27 -116 -52 -133 -55
-16 -3 -5 4 25 16 74 29 146 78 200 136 25 26 36 40 24 30 -11 -9 -25 -17 -30
-17 -5 0 -24 36 -43 80 -35 83 -71 127 -92 115 -7 -5 -10 -4 -6 2 4 6 1 13 -7
16 -9 4 -30 -20 -60 -66 -53 -83 -105 -147 -106 -130 0 6 16 30 35 54 20 23
48 62 62 86 26 45 25 53 -11 66 -11 4 65 287 77 287 4 0 7 -15 8 -32 0 -18 4
-42 8 -53 18 -46 22 194 6 415 -16 240 -32 400 -38 406 -2 2 -7 -67 -11 -153z
m-679 -714 c-9 -6 -17 -18 -18 -27 0 -9 -3 -12 -5 -6 -3 7 -15 10 -27 8 -14
-3 -11 1 10 11 17 8 35 19 38 25 4 6 10 8 13 5 4 -4 -1 -11 -11 -16z m-42 -69
c-3 -5 -12 -10 -18 -10 -7 0 -6 4 3 10 19 12 23 12 15 0z m-15 -121 c15 -28 5
-23 -15 7 -9 15 -12 23 -6 20 6 -4 16 -16 21 -27z m-1567 -14 c-3 -9 -8 -14
-10 -11 -3 3 -2 9 2 15 9 16 15 13 8 -4z m259 -169 c12 -9 29 -16 36 -16 20 0
101 -53 100 -65 -1 -5 2 -18 7 -28 7 -17 8 -17 22 0 8 10 12 12 8 6 -3 -7 0
-13 7 -13 18 0 39 -36 43 -74 2 -17 1 -25 -2 -18 -4 10 -8 10 -21 0 -15 -11
-15 -11 -6 2 17 24 2 65 -24 66 -24 1 -58 -46 -44 -61 4 -5 1 -4 -7 0 -8 5
-28 9 -44 10 -28 2 -29 1 -12 -12 23 -16 39 -17 29 -1 -4 7 -3 8 5 4 6 -4 8
-12 5 -18 -5 -8 -1 -9 9 -5 47 19 49 18 14 -6 -51 -37 -100 -61 -113 -59 -6 1
-16 -8 -22 -20 -7 -15 -11 -17 -11 -8 -1 13 -2 13 -12 0 -9 -13 -10 -13 -6 0
2 8 9 14 15 13 5 -1 13 5 16 13 5 12 2 15 -11 10 -10 -4 -14 -3 -9 1 4 4 15 8
24 9 10 1 27 2 40 3 13 0 21 5 18 9 -7 12 12 38 21 29 4 -5 1 -12 -7 -17 -8
-6 -10 -10 -4 -10 6 0 17 6 23 13 8 11 5 16 -15 25 -31 15 -84 16 -84 2 0 -5
-22 -10 -50 -10 -33 0 -50 -4 -50 -12 -1 -7 -7 -2 -15 12 -7 14 -12 39 -9 55
3 24 1 22 -10 -10 -7 -22 -17 -51 -21 -65 l-9 -25 -7 25 c-4 14 -8 43 -8 65
-1 22 -7 68 -14 102 -8 34 -10 60 -5 57 4 -3 8 -1 8 3 0 27 168 43 202 19z
m710 7 c-9 -3 -10 -9 -3 -17 8 -9 7 -13 -4 -13 -8 0 -12 4 -9 9 3 4 -3 8 -13
8 -15 0 -16 2 -3 10 8 5 22 9 30 9 11 0 11 -2 2 -6z m-552 -99 c0 -8 -5 -12
-10 -9 -6 4 -8 11 -5 16 9 14 15 11 15 -7z m30 -87 c0 -18 -2 -19 -10 -7 -13
20 -13 43 0 35 6 -3 10 -16 10 -28z m-34 -14 c-10 -10 -19 5 -10 18 6 11 8 11
12 0 2 -7 1 -15 -2 -18z m34 -69 c0 -2 -8 0 -18 5 -27 14 -44 -2 -46 -43 -3
-41 -10 -51 -26 -41 -8 5 -7 12 5 25 15 16 15 18 -1 24 -10 4 -26 -1 -38 -11
l-21 -17 20 21 c11 12 26 23 34 25 8 2 23 11 33 21 14 14 23 15 38 7 11 -6 20
-13 20 -16z m94 11 c-4 -8 -8 -15 -10 -15 -2 0 -4 7 -4 15 0 8 4 15 10 15 5 0
7 -7 4 -15z m-414 -5 c0 -5 -4 -10 -10 -10 -5 0 -10 5 -10 10 0 6 5 10 10 10
6 0 10 -4 10 -10z m-45 -39 c3 -5 1 -12 -5 -16 -5 -3 -10 1 -10 9 0 18 6 21
15 7z m256 -24 c-6 -8 -7 -18 -3 -22 4 -5 1 -5 -6 -1 -10 6 -10 11 -1 22 6 8
14 14 16 14 3 0 0 -6 -6 -13z m-41 -7 c0 -5 -5 -10 -11 -10 -5 0 -7 5 -4 10 3
6 8 10 11 10 2 0 4 -4 4 -10z m180 -19 c0 -5 -12 -16 -27 -26 l-28 -17 25 25
c28 29 30 30 30 18z m-60 -25 c0 -2 -7 -7 -16 -10 -8 -3 -12 -2 -9 4 6 10 25
14 25 6z m70 -216 c-16 -40 -23 -33 -9 9 6 18 14 30 17 27 2 -3 -1 -19 -8 -36z
m300 -45 c0 -5 -5 -3 -10 5 -5 8 -10 20 -10 25 0 6 5 3 10 -5 5 -8 10 -19 10
-25z m94 -271 c3 -8 2 -12 -4 -9 -6 3 -10 10 -10 16 0 14 7 11 14 -7z m31 -60
c-18 -19 -31 -18 -15 1 6 8 8 20 4 27 -6 10 -4 10 9 0 14 -12 14 -16 2 -28z
m39 -12 c2 -4 -5 -9 -17 -9 -17 -2 -19 0 -7 7 18 12 18 12 24 2z m36 -43 c0
-6 -4 -7 -10 -4 -5 3 -10 11 -10 16 0 6 5 7 10 4 6 -3 10 -11 10 -16z"/>
<path d="M2013 861 c0 -28 3 -51 8 -51 11 0 11 57 0 84 -5 12 -7 0 -8 -33z"/>
<path d="M766 2208 c-10 -35 -33 -99 -52 -142 -19 -43 -44 -122 -54 -175 -11
-53 -22 -107 -25 -121 -3 -14 3 -4 12 22 10 26 24 53 31 60 6 6 12 25 12 42 0
16 4 43 9 60 5 17 28 93 52 169 23 75 40 140 37 142 -3 3 -13 -23 -22 -57z"/>
<path d="M1602 2250 c0 -14 2 -19 5 -12 2 6 2 18 0 25 -3 6 -5 1 -5 -13z"/>
<path d="M3225 2240 c-3 -5 -4 -14 0 -19 3 -5 1 -12 -5 -16 -33 -20 16 -39
220 -86 285 -65 277 -64 310 -25 31 39 -50 72 -294 121 -181 37 -221 41 -231
25z"/>
<path d="M5302 2230 c-1 -14 5 -54 12 -90 8 -36 14 -56 14 -45 1 11 -5 52 -12
90 -8 39 -14 59 -14 45z"/>
<path d="M586 2124 c-50 -210 -141 -462 -218 -601 -45 -83 -45 -97 1 -24 33
55 91 187 141 325 35 96 113 393 107 410 -2 5 -16 -44 -31 -110z"/>
<path d="M1615 2164 c6 -66 67 -344 84 -384 l11 -25 -5 27 c-25 129 -34 182
-31 185 1 2 19 -33 39 -77 20 -44 39 -80 41 -80 8 0 -37 114 -50 127 -14 14
-55 135 -79 228 l-15 60 5 -61z"/>
<path d="M466 2065 c-9 -26 -7 -32 5 -12 6 10 9 21 6 23 -2 3 -7 -2 -11 -11z"/>
<path d="M5332 2050 c0 -14 4 -38 8 -55 7 -27 8 -27 8 -5 0 14 -4 39 -8 55 -7
27 -8 27 -8 5z"/>
<path d="M1135 1978 c13 -140 55 -331 92 -418 33 -76 124 -233 109 -186 -4 10
-11 39 -18 63 -6 25 -14 40 -18 34 -3 -7 -6 3 -6 21 0 48 -31 188 -69 308 -18
58 -39 132 -46 165 -13 62 -24 85 -41 85 -6 0 -7 -27 -3 -72z"/>
<path d="M432 2010 c-6 -11 -8 -21 -3 -25 5 -3 13 4 16 16 9 28 2 33 -13 9z"/>
<path d="M5351 1944 c0 -11 3 -14 6 -6 3 7 2 16 -1 19 -3 4 -6 -2 -5 -13z"/>
<path d="M4711 1878 c4 -35 9 -112 10 -173 2 -121 5 -132 59 -190 21 -22 52
-56 70 -75 18 -19 27 -28 21 -18 -8 11 -9 18 -1 23 6 3 7 11 4 17 -4 6 1 17
10 24 16 11 16 15 3 41 -25 49 -79 221 -82 262 -2 30 -13 52 -44 88 -22 26
-41 51 -41 56 0 4 -4 7 -8 7 -5 0 -5 -28 -1 -62z m152 -375 c-5 -14 -4 -16 8
-8 8 6 7 3 -2 -6 -13 -12 -15 -19 -6 -28 6 -6 8 -11 4 -11 -4 0 -10 0 -14 0
-5 0 -8 3 -8 8 0 4 -4 13 -9 21 -6 9 -5 12 1 8 6 -4 13 2 16 13 3 11 8 20 11
20 3 0 2 -8 -1 -17z"/>
<path d="M851 1862 c-23 -75 -40 -190 -35 -232 1 -14 3 -32 3 -40 1 -12 3 -12
10 -2 5 8 9 48 10 90 1 43 10 115 20 162 11 47 18 87 16 88 -2 2 -13 -28 -24
-66z"/>
<path d="M4810 1921 c0 -6 4 -13 10 -16 6 -3 7 1 4 9 -7 18 -14 21 -14 7z"/>
<path d="M589 1829 c-30 -51 -53 -100 -51 -109 1 -10 -13 -87 -32 -171 -20
-85 -38 -165 -41 -179 -3 -14 6 -2 20 25 14 28 23 56 20 63 -3 7 -1 11 4 8 17
-11 82 168 102 279 11 61 24 123 29 139 18 52 4 38 -51 -55z m-68 -326 c-12
-20 -14 -14 -5 12 4 9 9 14 11 11 3 -2 0 -13 -6 -23z"/>
<path d="M5361 1910 c0 -8 6 -37 13 -65 8 -27 15 -43 15 -35 0 8 -6 38 -13 65
-8 28 -15 43 -15 35z"/>
<path d="M4830 1885 c0 -10 40 -75 47 -75 2 0 -6 17 -18 38 -28 45 -29 47 -29
37z"/>
<path d="M4540 1830 c0 -8 5 -22 10 -30 9 -13 10 -13 10 0 0 8 -5 22 -10 30
-9 13 -10 13 -10 0z"/>
<path d="M3914 1814 c-4 -10 -20 -48 -36 -83 -15 -35 -27 -66 -25 -68 2 -2 21
33 41 78 21 44 35 83 32 86 -3 3 -9 -3 -12 -13z"/>
<path d="M4840 1785 c13 -14 26 -25 28 -25 3 0 -5 11 -18 25 -13 14 -26 25
-28 25 -3 0 5 -11 18 -25z"/>
<path d="M5391 1774 c0 -11 3 -14 6 -6 3 7 2 16 -1 19 -3 4 -6 -2 -5 -13z"/>
<path d="M1711 1734 c0 -11 3 -14 6 -6 3 7 2 16 -1 19 -3 4 -6 -2 -5 -13z"/>
<path d="M3792 1643 c-36 -99 -85 -188 -135 -243 -20 -22 -14 -19 16 10 27 25
60 66 74 93 14 26 30 47 35 47 5 0 7 4 4 8 -3 5 6 42 20 82 13 40 23 78 21 83
-2 6 -18 -30 -35 -80z"/>
<path d="M4561 1714 c0 -11 3 -14 6 -6 3 7 2 16 -1 19 -3 4 -6 -2 -5 -13z"/>
<path d="M509 1703 c-13 -16 -12 -17 4 -4 9 7 17 15 17 17 0 8 -8 3 -21 -13z"/>
<path d="M6 1695 c-9 -26 -7 -32 5 -12 6 10 9 21 6 23 -2 3 -7 -2 -11 -11z"/>
<path d="M2544 1666 c-10 -8 -17 -17 -14 -19 3 -3 16 3 29 14 27 22 15 26 -15
5z"/>
<path d="M4572 1640 c0 -19 2 -27 5 -17 2 9 2 25 0 35 -3 9 -5 1 -5 -18z"/>
<path d="M2772 1636 c10 -7 22 -24 27 -37 l10 -24 0 26 c1 28 -15 49 -38 49
-14 -1 -13 -3 1 -14z"/>
<path d="M1316 1515 c7 -43 42 -153 43 -135 1 8 -10 49 -24 90 -13 41 -22 62
-19 45z"/>
<path d="M792 1460 c0 -14 2 -19 5 -12 2 6 2 18 0 25 -3 6 -5 1 -5 -13z"/>
<path d="M1710 1469 c0 -4 16 -40 35 -81 60 -127 95 -356 92 -610 -2 -153 -1
-157 16 -135 38 48 69 122 74 178 7 67 -5 172 -17 164 -5 -3 -6 -13 -3 -22 6
-15 5 -16 -9 -3 -14 13 -14 16 3 28 35 25 24 73 -55 230 -80 158 -136 261
-136 251z m160 -499 c0 -5 -5 -10 -11 -10 -5 0 -7 5 -4 10 3 6 8 10 11 10 2 0
4 -4 4 -10z m20 -30 c0 -5 7 -7 15 -4 8 4 15 1 15 -6 0 -6 -4 -8 -10 -5 -6 4
-11 -6 -11 -22 -2 -27 -2 -27 -6 -3 -3 14 -10 31 -15 38 -7 8 -7 12 1 12 6 0
11 -4 11 -10z"/>
<path d="M5225 1423 c9 -33 123 -236 174 -313 24 -36 53 -80 65 -97 12 -18 22
-29 24 -24 2 5 -30 60 -71 122 -41 63 -96 155 -122 204 -27 50 -55 99 -63 110
-13 19 -14 19 -7 -2z"/>
<path d="M1987 1389 c7 -7 15 -10 18 -7 3 3 -2 9 -12 12 -14 6 -15 5 -6 -5z"/>
<path d="M4920 1367 c0 -2 15 -16 33 -33 l32 -29 -29 33 c-28 30 -36 37 -36
29z"/>
<path d="M3417 1333 c-4 -3 -7 -11 -7 -17 0 -6 5 -5 12 2 6 6 9 14 7 17 -3 3
-9 2 -12 -2z"/>
<path d="M4581 1314 c0 -11 3 -14 6 -6 3 7 2 16 -1 19 -3 4 -6 -2 -5 -13z"/>
<path d="M3278 1303 c7 -3 16 -2 19 1 4 3 -2 6 -13 5 -11 0 -14 -3 -6 -6z"/>
<path d="M4463 1230 c-1 -36 2 -57 6 -46 6 15 9 12 18 -17 9 -28 7 -38 -8 -58
-23 -29 -25 -46 -3 -28 24 20 46 67 33 71 -6 2 -19 35 -29 73 l-17 70 0 -65z"/>
<path d="M3085 1250 l-60 -18 47 2 c25 0 41 4 35 8 -8 5 -4 8 8 8 11 0 27 5
35 10 21 14 4 11 -65 -10z"/>
<path d="M4573 1200 c-11 -38 -17 -67 -13 -65 9 5 43 125 38 131 -2 2 -13 -28
-25 -66z"/>
<path d="M2998 1223 c7 -3 16 -2 19 1 4 3 -2 6 -13 5 -11 0 -14 -3 -6 -6z"/>
<path d="M2958 1213 c7 -3 16 -2 19 1 4 3 -2 6 -13 5 -11 0 -14 -3 -6 -6z"/>
<path d="M2918 1203 c7 -3 16 -2 19 1 4 3 -2 6 -13 5 -11 0 -14 -3 -6 -6z"/>
<path d="M2878 1193 c7 -3 16 -2 19 1 4 3 -2 6 -13 5 -11 0 -14 -3 -6 -6z"/>
<path d="M4381 1174 c0 -11 3 -14 6 -6 3 7 2 16 -1 19 -3 4 -6 -2 -5 -13z"/>
<path d="M346 993 c-55 -158 -61 -180 -52 -172 9 8 107 301 103 306 -2 2 -25
-59 -51 -134z"/>
<path d="M4540 1066 c0 -2 8 -10 18 -17 15 -13 16 -12 3 4 -13 16 -21 21 -21
13z"/>
<path d="M4511 1046 c-11 -13 -5 -26 11 -26 5 0 7 4 4 9 -4 5 -1 11 6 13 8 3
9 6 1 11 -6 4 -16 1 -22 -7z"/>
<path d="M4470 965 c-7 -9 -11 -17 -9 -20 3 -2 10 5 17 15 14 24 10 26 -8 5z"/>
<path d="M1961 834 c0 -11 3 -14 6 -6 3 7 2 16 -1 19 -3 4 -6 -2 -5 -13z"/>
<path d="M225 662 c-32 -81 -87 -212 -122 -291 -35 -79 -62 -145 -60 -147 5
-5 99 207 177 401 40 97 70 178 68 181 -3 2 -31 -63 -63 -144z"/>
<path d="M5411 685 c0 -5 6 -21 14 -35 8 -14 14 -20 14 -15 0 6 -6 21 -14 35
-8 14 -14 21 -14 15z"/>
<path d="M5441 615 c0 -5 11 -32 25 -60 13 -27 21 -39 18 -25 -7 29 -43 100
-43 85z"/>
<path d="M6 155 c-9 -26 -7 -32 5 -12 6 10 9 21 6 23 -2 3 -7 -2 -11 -11z"/>
</g>
</svg>
