<?xml version="1.0" standalone="no"?>
<!DOCTYPE svg PUBLIC "-//W3C//DTD SVG 20010904//EN"
 "http://www.w3.org/TR/2001/REC-SVG-20010904/DTD/svg10.dtd">
<svg version="1.0" xmlns="http://www.w3.org/2000/svg"
 width="852.000000pt" height="852.000000pt" viewBox="0 0 852.000000 852.000000"
 preserveAspectRatio="xMidYMid meet">
<metadata>
Created by potrace 1.14, written by Peter Selinger 2001-2017
</metadata>
<g transform="translate(0.000000,852.000000) scale(0.100000,-0.100000)"
fill="#000000" stroke="none">
<path d="M2652 7735 c0 -16 2 -22 5 -12 2 9 2 23 0 30 -3 6 -5 -1 -5 -18z"/>
<path d="M2661 7685 c-1 -28 26 -193 38 -235 8 -29 9 -23 4 32 -5 69 -41 239
-42 203z"/>
<path d="M1955 7448 c-19 -105 -39 -319 -32 -360 2 -16 2 -28 -1 -28 -2 0 -39
33 -82 73 -106 100 -328 244 -535 349 -16 9 -45 23 -63 33 -18 9 -35 15 -37
13 -4 -3 90 -56 190 -106 34 -17 133 -77 215 -131 66 -42 227 -170 256 -203
30 -33 65 -60 71 -55 6 6 11 72 17 222 3 67 10 156 16 199 6 43 9 80 7 82 -2
3 -12 -37 -22 -88z"/>
<path d="M3255 7404 c-126 -13 -343 -49 -427 -70 -53 -13 -104 -24 -112 -24
-24 0 -308 -108 -320 -121 -8 -9 -6 -10 9 -4 167 65 265 94 265 77 0 -5 -18
-15 -40 -22 -22 -7 -40 -17 -40 -21 0 -12 57 -21 82 -13 28 8 51 31 39 38 -4
3 -16 -3 -26 -14 -16 -18 -51 -17 -39 1 3 5 9 7 14 4 5 -3 17 6 28 20 11 13
22 22 25 19 3 -3 15 -1 26 6 17 9 21 8 21 -5 0 -8 8 -15 18 -15 13 0 14 2 4 9
-9 5 6 14 45 25 32 9 75 22 95 28 20 6 51 8 68 5 19 -4 29 -3 25 3 -8 13 25
13 45 0 8 -5 11 -10 5 -10 -13 0 17 -20 30 -20 6 0 3 5 -5 10 -10 6 3 8 40 5
34 -2 43 -1 25 3 -32 8 -48 42 -19 42 10 0 14 -5 11 -14 -4 -11 9 -13 70 -12
51 1 78 5 81 14 2 6 8 12 13 12 6 0 7 -5 3 -11 -9 -15 96 -3 111 12 5 5 18 9
30 8 17 -1 16 -2 -5 -9 -21 -7 -21 -8 -5 -9 11 0 31 2 44 6 23 6 24 7 5 15
-13 6 -10 6 11 2 78 -16 169 -22 261 -18 78 4 103 2 112 -8 9 -11 4 -13 -26
-10 -35 3 -36 2 -18 -12 11 -9 30 -16 42 -16 11 0 41 -3 66 -6 32 -5 48 -2 59
8 8 8 29 17 47 20 l33 5 -25 -22 -26 -22 31 -7 c17 -3 43 -6 56 -6 22 0 24 2
13 15 -11 13 -7 15 27 15 21 0 43 -4 48 -9 6 -4 26 -11 45 -15 32 -6 33 -5 15
8 -25 20 -12 20 28 2 18 -8 41 -17 52 -19 21 -5 -54 -11 -92 -8 -13 1 -23 -3
-23 -9 0 -8 19 -9 60 -4 55 6 60 5 54 -11 -6 -15 -4 -16 14 -6 13 7 22 8 22 2
0 -13 106 -36 155 -33 27 2 36 0 26 -6 -11 -8 -11 -10 0 -14 8 -3 22 1 32 10
9 8 20 12 25 7 4 -4 1 -10 -5 -12 -27 -10 -11 -22 35 -29 26 -3 53 -11 60 -17
7 -5 29 -7 50 -4 20 3 31 3 25 0 -7 -2 -13 -9 -13 -15 0 -6 7 -8 15 -4 8 3 15
1 15 -4 0 -6 6 -10 13 -10 6 0 25 -7 41 -15 20 -11 32 -12 41 -5 14 11 77 2
70 -11 -3 -4 5 -9 17 -11 15 -2 24 -11 26 -25 3 -19 6 -21 28 -11 21 10 27 8
49 -16 14 -15 30 -24 35 -21 6 4 9 1 8 -6 -2 -7 6 -14 17 -16 17 -4 18 -2 5 7
-13 10 -12 11 3 6 10 -3 21 -6 23 -6 3 0 2 -5 -1 -11 -4 -6 1 -16 11 -24 14
-10 18 -23 15 -55 -1 -25 1 -40 7 -36 6 3 10 -100 10 -277 1 -155 5 -304 10
-332 47 -249 96 -394 176 -519 20 -32 84 -106 141 -166 58 -60 105 -116 105
-124 0 -9 6 -15 13 -14 7 2 11 -5 9 -16 -2 -10 1 -15 7 -12 10 7 51 -22 51
-36 0 -5 -7 -8 -15 -8 -8 0 -15 5 -15 12 0 6 -2 9 -5 6 -3 -2 5 -26 18 -52
l23 -48 12 27 c7 15 10 30 7 33 -3 3 -5 0 -5 -6 0 -7 -7 -12 -15 -12 -13 0
-13 3 -3 20 15 23 53 28 45 6 -3 -7 1 -26 9 -41 8 -15 14 -38 14 -50 0 -13 5
-25 10 -27 7 -2 7 -15 0 -38 -5 -19 -10 -48 -10 -65 0 -23 -3 -27 -10 -15 -14
21 -12 3 2 -23 6 -12 15 -56 20 -97 4 -41 11 -93 14 -115 4 -30 3 -36 -5 -25
-9 12 -11 11 -11 -7 0 -12 5 -25 11 -29 7 -4 9 -23 5 -53 -3 -25 -1 -59 4 -76
l10 -30 -4 31 c-3 17 -1 44 3 60 7 27 8 25 13 -21 3 -27 4 -76 2 -107 -1 -32
1 -60 7 -63 5 -4 9 -21 9 -38 0 -24 3 -28 10 -17 8 13 10 13 10 -2 0 -9 -4
-27 -9 -40 -6 -16 -5 -32 5 -48 12 -23 13 -23 15 -5 1 20 19 -34 22 -67 1 -12
5 -14 13 -7 8 7 13 0 18 -22 3 -18 4 -34 1 -37 -3 -3 -5 2 -5 11 0 9 -4 17
-10 17 -13 0 -13 0 10 -52 16 -38 18 -49 7 -71 -13 -29 -33 -38 -22 -9 16 40
16 46 0 27 -17 -20 -17 -20 -10 3 4 13 2 22 -4 22 -6 0 -12 15 -12 33 -1 19
-3 25 -6 13 -4 -13 -14 1 -34 50 -24 56 -28 74 -19 94 9 22 9 23 -4 7 -13 -16
-14 -16 -19 5 -11 44 -46 133 -47 117 0 -22 62 -211 106 -323 41 -103 108
-244 159 -331 52 -90 47 -107 -16 -54 -130 109 -298 399 -351 604 -39 154 -43
165 -51 165 -5 0 -6 -7 -3 -16 6 -16 23 -145 52 -399 33 -299 27 -941 -11
-1098 -11 -46 -13 -13 -14 264 -1 304 -5 379 -21 379 -4 0 -10 -45 -13 -100
-4 -60 -13 -114 -22 -135 -9 -19 -14 -38 -11 -44 4 -5 1 -31 -5 -58 -6 -26
-13 -61 -15 -76 -18 -134 -135 -426 -198 -496 -27 -29 -17 -33 45 -19 87 21
562 17 729 -5 165 -22 350 -57 350 -67 0 -4 -32 -28 -71 -55 -40 -26 -67 -50
-62 -54 15 -9 34 -312 22 -353 -5 -18 -8 -42 -8 -53 1 -13 4 -9 8 10 10 43 21
-215 21 -490 0 -131 4 -236 10 -245 6 -10 10 156 10 477 0 354 3 494 11 499 8
5 9 35 5 100 l-7 93 28 15 c37 19 77 62 69 74 -3 6 -28 13 -55 17 l-49 7 -5
361 c-3 199 -10 409 -17 467 -9 90 -9 114 5 165 9 33 29 134 44 225 l28 165
12 -45 c7 -25 17 -58 22 -75 21 -67 60 -296 66 -394 6 -89 8 -99 14 -61 3 25
5 70 2 100 -2 30 0 82 4 114 l8 60 48 -82 c26 -45 47 -93 47 -106 0 -13 5 -26
12 -28 14 -5 16 -123 5 -258 -4 -52 -6 -92 -3 -90 6 6 45 353 48 432 l3 58 55
-76 c30 -42 66 -90 80 -107 23 -29 25 -40 31 -181 l5 -151 3 150 c2 83 3 177
2 210 -1 33 -1 113 -2 177 0 65 -4 120 -9 123 -6 4 -10 -46 -10 -129 0 -75 -4
-136 -9 -136 -9 0 -111 107 -157 166 -59 75 -131 180 -174 254 -25 41 -47 77
-51 80 -3 3 -17 25 -29 50 -12 25 -29 49 -36 53 -8 4 -14 17 -14 27 0 11 -3
20 -8 20 -4 0 -16 16 -26 35 -11 19 -22 35 -26 35 -4 0 -7 6 -7 13 0 7 -9 27
-20 43 -45 65 -71 110 -77 131 -4 11 -13 24 -21 27 -8 3 -15 10 -15 16 0 6
-11 26 -25 44 -14 18 -25 36 -25 39 0 3 -13 25 -29 49 -15 24 -58 104 -95 178
-37 74 -73 142 -81 150 -37 42 -74 183 -82 318 -5 79 -4 92 9 87 21 -8 40 19
35 52 l-4 28 -8 -33 c-5 -23 -10 -29 -16 -21 -4 7 -4 18 1 24 5 6 5 27 1 47
-5 20 -5 42 0 49 6 10 9 6 9 -13 0 -17 8 -33 20 -40 15 -10 20 -24 21 -63 l1
-50 18 39 c10 22 15 46 12 55 -5 12 -8 10 -13 -9 -7 -25 -7 -25 -8 -2 -1 31
16 62 35 62 8 0 28 10 44 21 40 30 100 22 201 -30 45 -22 86 -41 92 -41 18 0
-37 37 -110 73 -72 37 -97 57 -70 57 8 0 18 7 21 16 4 12 2 15 -9 10 -8 -3
-22 -9 -30 -12 -8 -3 -15 -1 -15 5 0 6 8 11 19 11 24 0 47 25 31 35 -15 9 28
41 81 59 53 19 160 21 206 4 33 -12 44 -28 19 -28 -7 0 -19 -7 -26 -15 -11
-13 -5 -15 46 -17 127 -3 139 -4 152 -12 7 -4 16 -5 19 -2 3 3 12 1 19 -5 7
-5 38 -12 69 -13 31 -2 59 -7 63 -11 4 -4 -3 -4 -15 -1 -14 5 -23 3 -23 -3 0
-6 3 -10 8 -10 4 1 18 1 31 0 18 -1 21 -4 13 -14 -8 -10 -2 -12 28 -12 21 0
38 -4 37 -9 -1 -6 9 -13 23 -16 61 -16 72 -22 58 -32 -10 -8 -10 -9 3 -5 8 3
30 -8 49 -24 18 -16 36 -29 39 -29 4 0 18 -10 31 -22 13 -13 32 -27 42 -33 9
-5 57 -37 105 -71 111 -76 123 -83 98 -54 -30 33 -269 210 -355 262 -94 57
-184 102 -255 129 -30 11 -55 25 -55 30 0 5 20 36 45 68 25 33 59 88 75 123
53 114 103 346 99 463 -1 24 -5 7 -10 -40 -10 -98 -43 -250 -71 -330 -40 -113
-120 -231 -161 -237 -20 -3 -146 41 -171 61 -6 4 -22 9 -36 10 -24 3 -37 3
-93 1 -42 -2 -63 8 -75 35 -6 14 -16 25 -22 25 -5 0 -10 9 -10 21 0 21 65 185
81 205 13 16 40 96 34 102 -3 3 -10 -10 -17 -29 -22 -64 -127 -264 -165 -314
-21 -28 -45 -62 -54 -75 l-16 -24 -25 26 c-25 24 -26 30 -26 139 0 119 7 156
76 394 26 89 78 255 97 310 5 17 5 18 -4 3 -6 -9 -29 -67 -51 -130 -23 -62
-52 -140 -64 -173 -13 -33 -34 -100 -46 -150 -29 -123 -29 -124 -40 -105 -4 8
-25 83 -45 165 -54 221 -126 464 -146 494 -9 14 -10 14 -5 -1 14 -48 69 -237
76 -263 4 -16 25 -93 45 -170 61 -227 76 -328 56 -377 -5 -13 -15 -44 -22 -70
-7 -26 -18 -46 -23 -45 -6 1 -12 -10 -14 -24 -2 -20 2 -28 17 -32 45 -12 33
-67 -15 -67 -19 0 -24 -5 -24 -25 0 -16 -15 -39 -41 -65 -31 -30 -42 -50 -46
-80 -5 -36 -8 -39 -20 -27 -8 7 -15 25 -17 38 -2 13 -11 42 -21 64 -20 46 -49
150 -76 280 -22 100 -45 143 -34 60 21 -149 114 -507 136 -520 11 -7 12 -105
2 -105 -9 0 -90 50 -165 102 -212 148 -325 313 -393 577 -34 132 -48 285 -41
448 18 408 19 453 5 453 -7 0 -29 11 -48 23 -143 94 -210 131 -311 170 -282
110 -494 165 -820 214 -153 23 -212 26 -475 28 -165 2 -318 1 -340 -1z m121
-43 c-3 -5 -15 -7 -26 -4 -28 7 -25 13 6 13 14 0 23 -4 20 -9z m317 2 c-7 -2
-21 -2 -30 0 -10 3 -4 5 12 5 17 0 24 -2 18 -5z m-446 -9 c-3 -3 -12 -4 -19
-1 -8 3 -5 6 6 6 11 1 17 -2 13 -5z m860 -50 c-3 -3 -12 -4 -19 -1 -8 3 -5 6
6 6 11 1 17 -2 13 -5z m340 -50 c-3 -3 -12 -4 -19 -1 -8 3 -5 6 6 6 11 1 17
-2 13 -5z m218 -74 c3 -5 -1 -10 -10 -10 -9 0 -13 5 -10 10 3 6 8 10 10 10 2
0 7 -4 10 -10z m42 -6 c-3 -3 -12 -4 -19 -1 -8 3 -5 6 6 6 11 1 17 -2 13 -5z
m58 -4 c-3 -5 -10 -10 -16 -10 -5 0 -9 5 -9 10 0 6 7 10 16 10 8 0 12 -4 9
-10z m121 -54 c15 5 16 4 8 -6 -14 -14 -58 -4 -48 12 4 7 9 6 14 -1 4 -7 15
-9 26 -5z m1181 -1213 c-3 -10 -5 -4 -5 12 0 17 2 24 5 18 2 -7 2 -21 0 -30z
m518 -143 c18 -8 18 -9 -5 -9 -14 0 -32 4 -40 9 -12 8 -12 10 5 9 11 0 29 -4
40 -9z m-68 -6 c-3 -3 -12 -4 -19 -1 -8 3 -5 6 6 6 11 1 17 -2 13 -5z m-339
-40 c-3 -2 -20 -7 -39 -11 -30 -6 -33 -5 -21 10 8 9 20 13 28 10 9 -3 14 2 14
13 1 18 1 18 11 1 6 -10 9 -20 7 -23z m-150 -106 c-17 -11 -37 -26 -45 -34
-18 -17 -33 -10 -33 17 0 18 15 24 49 20 7 -2 11 2 7 7 -3 5 8 9 24 9 l30 0
-32 -19z m-264 -237 c-2 -3 -12 3 -22 13 -16 17 -16 18 5 5 12 -7 20 -15 17
-18z m52 -55 c4 -19 3 -27 -3 -23 -6 4 -13 20 -15 37 -6 37 8 27 18 -14z m95
-135 c7 -45 16 -76 20 -70 3 6 9 -6 13 -27 11 -68 13 -77 69 -209 30 -71 62
-152 73 -180 20 -56 121 -262 139 -285 35 -43 106 -350 129 -555 9 -77 20
-174 26 -215 6 -41 13 -254 17 -472 6 -369 5 -398 -11 -398 -20 0 -20 0 -40
110 l-15 85 5 -93 6 -94 -29 6 c-15 3 -104 15 -196 25 -93 10 -170 21 -173 24
-3 2 16 30 42 62 70 85 184 260 224 342 19 39 40 72 47 72 6 1 14 -18 18 -41
15 -101 39 -212 43 -196 2 9 -2 40 -8 70 -6 29 -19 107 -30 173 -18 111 -59
279 -81 333 -15 37 -11 41 22 25 38 -19 50 -9 18 16 -13 10 -34 27 -47 37 -27
23 -116 272 -232 649 -25 83 -33 143 -23 188 11 52 25 51 44 -3 9 -25 21 -58
28 -75 19 -47 38 -106 52 -157 7 -26 17 -44 21 -42 4 3 8 -4 8 -15 0 -22 88
-113 102 -105 21 13 6 65 -32 109 -22 25 -40 54 -40 63 0 8 -13 43 -30 76 -75
154 -125 321 -173 576 -27 142 -45 333 -28 293 5 -11 15 -58 22 -102z m-38
-116 c4 -32 3 -43 -3 -30 -8 19 -14 93 -6 84 2 -2 6 -26 9 -54z m-27 -262
c-10 -10 -19 5 -10 18 6 11 8 11 12 0 2 -7 1 -15 -2 -18z m454 -394 c0 -6 -4
-7 -10 -4 -5 3 -10 11 -10 16 0 6 5 7 10 4 6 -3 10 -11 10 -16z m15 -29 c3 -5
1 -10 -4 -10 -6 0 -11 5 -11 10 0 6 2 10 4 10 3 0 8 -4 11 -10z m26 -32 c1 -7
1 -16 0 -20 0 -5 4 -8 9 -8 13 0 50 -37 43 -43 -2 -3 5 -15 16 -26 12 -12 21
-27 21 -35 0 -8 5 -16 11 -18 21 -7 -29 -390 -54 -414 -2 -2 -7 30 -11 72 -4
43 -18 136 -32 208 -13 72 -27 151 -30 175 -3 25 -8 49 -11 54 -3 6 -1 7 4 4
11 -7 27 33 18 42 -3 2 -5 -1 -5 -7 0 -7 -4 -12 -10 -12 -14 0 -12 27 3 33 21
9 27 8 28 -5z m-561 -233 c25 -41 54 -90 65 -109 31 -51 95 -127 150 -176 115
-104 117 -106 110 -147 -4 -21 -13 -56 -20 -78 -7 -22 -12 -71 -10 -110 1 -38
0 -61 -2 -50 -3 11 -9 24 -14 29 -15 16 -10 -37 5 -57 13 -16 14 -16 20 5 3
13 6 35 6 51 0 15 5 27 11 27 8 0 8 4 1 13 -8 9 -3 25 19 60 16 26 33 47 38
47 9 0 41 -61 41 -79 0 -6 9 -37 20 -69 33 -94 30 -117 -30 -228 -60 -113
-141 -241 -209 -329 -51 -66 -61 -76 -73 -69 -4 3 -8 1 -8 -4 0 -5 -32 -10
-70 -11 -56 -2 -71 1 -76 13 -3 9 -13 16 -21 16 -10 0 -13 6 -9 17 4 10 -1 23
-14 35 -11 10 -20 14 -20 8 0 -6 -6 -8 -12 -5 -7 4 -5 0 5 -8 9 -8 17 -20 17
-28 0 -11 -2 -11 -9 -1 -6 10 -10 10 -20 -2 -9 -11 -9 -15 1 -19 7 -3 3 -6 -8
-6 -21 -1 -21 0 -5 53 8 30 19 52 23 50 5 -3 9 10 9 28 1 18 3 25 6 16 5 -22
22 -23 29 -3 9 23 24 7 24 -25 0 -15 -7 -30 -15 -34 -20 -7 -19 -26 1 -26 10
0 14 -6 11 -15 -4 -8 -2 -17 3 -20 6 -4 10 0 10 9 0 8 6 17 13 19 8 4 7 6 -3
6 -12 1 -14 14 -12 71 2 39 8 70 14 70 6 0 8 13 6 30 -3 23 -1 30 9 26 15 -6
18 20 3 29 -5 3 -10 13 -10 22 0 9 3 13 7 10 10 -10 34 53 26 66 -4 7 -10 2
-14 -13 -4 -14 -7 26 -8 89 -1 63 -4 111 -8 107 -4 -4 -6 -47 -4 -97 2 -62 -1
-95 -10 -105 -7 -9 -12 -34 -10 -55 2 -30 -1 -39 -13 -39 -9 0 -16 7 -16 15 0
8 -10 16 -22 16 l-23 2 23 4 c15 3 22 12 22 26 0 22 19 61 20 42 1 -5 5 1 11
13 6 15 5 30 -1 40 -8 14 -10 14 -11 2 -1 -8 0 -22 1 -30 1 -8 -2 -11 -6 -7
-5 5 -9 39 -9 77 0 69 10 82 18 25 2 -16 3 -12 1 10 -2 22 -5 87 -7 145 -3 58
-3 83 -1 55 2 -27 7 -61 10 -75 l6 -25 9 24 c7 17 6 27 -2 31 -7 5 -12 52 -12
133 -1 70 -5 119 -9 109 -4 -9 -4 31 -1 91 5 81 3 107 -6 107 -9 0 -12 24 -9
90 2 50 -1 90 -5 90 -5 0 -6 9 -2 20 5 16 3 19 -12 13 -15 -6 -16 -5 -3 10 8
9 17 16 20 17 3 0 25 -34 50 -75z m197 20 c-4 -8 -11 -15 -17 -15 -7 0 -7 6 0
21 13 23 26 19 17 -6z m19 -82 c-10 -10 -19 5 -10 18 6 11 8 11 12 0 2 -7 1
-15 -2 -18z m51 -115 c-3 -7 -5 -2 -5 12 0 14 2 19 5 13 2 -7 2 -19 0 -25z
m603 -44 c0 -8 -9 -14 -20 -14 -19 0 -27 19 -14 33 10 9 34 -4 34 -19z m-73
-96 c-3 -8 -6 -5 -6 6 -1 11 2 17 5 13 3 -3 4 -12 1 -19z m-450 -130 c-3 -8
-6 -5 -6 6 -1 11 2 17 5 13 3 -3 4 -12 1 -19z m10 -54 c-9 -9 -28 6 -21 18 4
6 10 6 17 -1 6 -6 8 -13 4 -17z m-510 -396 c-3 -8 -6 -5 -6 6 -1 11 2 17 5 13
3 -3 4 -12 1 -19z m-17 -117 c-6 -17 -9 -43 -5 -59 3 -18 2 -33 -4 -37 -7 -4
-8 0 -4 10 3 10 0 21 -8 26 -20 13 -29 11 -29 -6 0 -8 -4 -15 -10 -15 -5 0
-10 7 -10 15 0 8 5 15 10 15 6 0 10 9 10 20 0 22 15 27 24 8 3 -7 4 0 1 16 -5
23 -3 27 9 23 11 -4 16 -1 16 10 0 9 3 13 6 10 4 -4 1 -20 -6 -36z m130 -31
c0 -21 -16 -35 -24 -22 -8 13 5 53 15 46 5 -3 9 -14 9 -24z m-163 -62 c-1 -35
4 -58 13 -58 6 0 10 8 10 17 0 13 3 14 12 5 8 -8 8 -15 -2 -26 -7 -9 -10 -23
-6 -31 4 -12 -3 -15 -34 -15 -21 0 -42 5 -45 10 -4 7 -12 7 -25 0 -10 -5 -27
-10 -37 -9 -13 0 -12 3 7 10 39 16 60 40 60 70 0 25 7 32 41 38 4 0 7 -5 6
-11z m0 -122 c18 -1 33 -5 33 -11 0 -12 -55 -14 -66 -2 -11 10 -54 9 -54 -2 0
-5 10 -12 23 -14 15 -3 14 -4 -5 -2 -15 1 -29 -3 -31 -9 -3 -6 -8 -8 -12 -4
-4 4 0 19 9 34 15 21 22 24 44 18 15 -4 42 -8 59 -8z m-117 -12 c0 -8 -5 -12
-10 -9 -6 4 -8 11 -5 16 9 14 15 11 15 -7z m940 -391 c0 -75 -2 -134 -4 -132
-2 2 -7 64 -10 137 -5 91 -4 132 3 132 7 0 11 -47 11 -137z"/>
<path d="M6323 3015 c0 -22 2 -30 4 -17 2 12 2 30 0 40 -3 9 -5 -1 -4 -23z"/>
<path d="M5915 3467 c-4 -10 -5 -21 -1 -24 10 -10 18 4 13 24 -4 17 -4 17 -12
0z"/>
<path d="M6032 3415 c0 -16 2 -22 5 -12 2 9 2 23 0 30 -3 6 -5 -1 -5 -18z"/>
<path d="M5890 3395 c0 -16 16 -20 24 -6 3 5 -1 11 -9 15 -9 3 -15 0 -15 -9z"/>
<path d="M6020 3360 c-1 -8 -2 -21 -1 -28 1 -7 -7 -21 -18 -30 -11 -9 -23 -30
-26 -47 -5 -29 -5 -30 6 -5 10 21 13 22 16 8 3 -10 9 -18 14 -18 12 0 11 24
-2 37 -8 8 -5 15 11 26 19 13 21 19 12 44 -6 15 -11 21 -12 13z"/>
<path d="M5840 3211 c0 -7 -7 -19 -15 -27 -17 -17 -20 -34 -6 -34 11 0 36 59
27 67 -3 3 -6 1 -6 -6z"/>
<path d="M5955 3210 c-3 -5 1 -10 10 -10 9 0 13 5 10 10 -3 6 -8 10 -10 10 -2
0 -7 -4 -10 -10z"/>
<path d="M5941 3174 c0 -11 3 -14 6 -6 3 7 2 16 -1 19 -3 4 -6 -2 -5 -13z"/>
<path d="M1172 7310 c3 -8 20 -23 39 -34 35 -20 34 -18 -15 24 -17 15 -27 19
-24 10z"/>
<path d="M4165 7280 c3 -5 1 -10 -6 -10 -7 0 -10 -3 -6 -6 8 -8 47 5 47 17 0
5 -9 9 -21 9 -11 0 -17 -4 -14 -10z"/>
<path d="M2733 7253 c9 -2 17 -9 17 -14 0 -5 5 -9 11 -9 8 0 8 5 -1 15 -7 8
-20 14 -29 14 -13 -1 -13 -2 2 -6z"/>
<path d="M2498 7183 c-35 -15 -57 -39 -23 -27 8 4 15 1 15 -5 0 -6 4 -11 10
-11 5 0 7 7 4 15 -4 9 5 19 28 29 44 19 13 18 -34 -1z"/>
<path d="M720 7183 c0 -18 162 -244 244 -340 130 -152 250 -256 358 -310 65
-32 72 -23 11 12 -178 104 -418 353 -573 593 -33 51 -40 59 -40 45z"/>
<path d="M2350 7170 c-8 -5 -10 -10 -5 -10 6 0 17 5 25 10 8 5 11 10 5 10 -5
0 -17 -5 -25 -10z"/>
<path d="M2370 7116 c-13 -13 -13 -26 1 -26 5 0 8 4 4 9 -3 6 12 11 32 13 l38
3 -32 6 c-18 3 -37 1 -43 -5z"/>
<path d="M2287 7077 c-15 -10 -13 -12 14 -13 17 -1 27 2 22 5 -4 3 -11 10 -14
14 -3 4 -13 1 -22 -6z"/>
<path d="M2600 7063 c-92 -7 -288 -46 -373 -74 -48 -16 -93 -29 -100 -29 -6 0
-25 -7 -42 -16 -16 -9 -47 -22 -68 -30 -21 -8 -92 -50 -158 -94 -65 -44 -119
-77 -119 -73 0 4 21 30 48 57 82 85 -4 15 -118 -96 -107 -104 -220 -227 -220
-239 0 -3 -10 -17 -23 -30 -31 -32 -185 -255 -250 -361 -208 -340 -464 -937
-532 -1238 -70 -313 -101 -482 -131 -705 -18 -138 -29 -580 -16 -655 7 -41 9
-11 5 120 -10 331 40 696 157 1166 87 345 170 572 361 984 51 109 265 462 331
545 4 5 18 24 31 40 13 17 35 48 49 70 70 111 318 325 488 420 124 70 275 140
332 155 24 7 63 18 88 26 72 22 249 44 357 44 224 0 431 -52 500 -126 12 -13
31 -24 42 -24 25 0 51 -10 51 -19 0 -4 -15 -6 -32 -3 -27 4 -31 2 -20 -9 6 -7
12 -26 12 -41 0 -15 2 -28 5 -28 14 0 46 40 40 49 -3 7 2 11 14 11 12 0 21 6
21 13 0 10 15 13 57 11 38 -2 53 0 43 6 -13 8 -13 10 0 14 33 11 148 24 190
21 25 -2 92 -6 150 -9 95 -4 98 -3 35 5 -254 32 -345 37 -398 21 -69 -20 -122
-20 -144 1 -11 9 -49 28 -85 41 -179 67 -376 94 -578 79z"/>
<path d="M2200 7031 c0 -5 -10 -12 -22 -14 -21 -4 -20 -4 3 -6 16 0 29 5 33
14 3 8 1 15 -4 15 -6 0 -10 -4 -10 -9z"/>
<path d="M5791 7030 c0 -8 4 -24 9 -35 5 -13 9 -14 9 -5 0 8 -4 24 -9 35 -5
13 -9 14 -9 5z"/>
<path d="M1921 6930 c-67 -52 -98 -80 -71 -65 11 7 122 89 149 112 2 1 0 3 -5
3 -5 -1 -38 -23 -73 -50z"/>
<path d="M5160 6930 c8 -5 20 -10 25 -10 6 0 3 5 -5 10 -8 5 -19 10 -25 10 -5
0 -3 -5 5 -10z"/>
<path d="M5832 6920 c0 -8 6 -31 13 -50 7 -19 13 -28 13 -20 0 8 -6 31 -13 50
-7 19 -13 28 -13 20z"/>
<path d="M6326 6895 c-9 -26 -7 -32 5 -12 6 10 9 21 6 23 -2 3 -7 -2 -11 -11z"/>
<path d="M3928 6893 c7 -3 16 -2 19 1 4 3 -2 6 -13 5 -11 0 -14 -3 -6 -6z"/>
<path d="M3988 6883 c7 -3 16 -2 19 1 4 3 -2 6 -13 5 -11 0 -14 -3 -6 -6z"/>
<path d="M4028 6873 c6 -2 18 -2 25 0 6 3 1 5 -13 5 -14 0 -19 -2 -12 -5z"/>
<path d="M4130 6840 c8 -5 21 -10 29 -10 7 0 22 -12 34 -26 16 -21 26 -25 54
-22 32 4 34 3 17 -10 -18 -14 -18 -14 -1 -8 25 8 68 -4 60 -17 -4 -6 0 -8 8
-5 8 3 28 0 44 -7 17 -7 24 -14 18 -14 -7 -1 -13 -6 -13 -12 0 -7 10 -9 25 -5
15 4 25 2 25 -4 0 -6 -4 -8 -10 -5 -24 15 -7 -13 20 -33 18 -13 30 -18 30 -11
0 7 3 9 6 6 10 -9 11 -87 2 -87 -5 0 -8 -7 -8 -15 0 -21 7 -19 36 10 25 25 40
33 29 15 -3 -5 1 -10 9 -10 8 0 22 -7 30 -16 9 -8 21 -14 27 -12 8 3 6 9 -4
20 -14 14 -14 17 -2 22 22 8 43 -3 51 -26 3 -12 11 -17 20 -14 9 3 12 1 9 -4
-3 -6 0 -10 7 -10 7 0 37 -22 66 -50 29 -27 55 -50 57 -50 2 0 15 -10 29 -22
53 -48 97 -80 102 -75 8 8 -111 122 -201 192 -179 140 -310 219 -428 261 -22
8 -45 18 -51 23 -15 11 -106 41 -125 41 -14 0 -14 -1 -1 -10z m335 -160 c3 -5
2 -10 -4 -10 -5 0 -13 5 -16 10 -3 6 -2 10 4 10 5 0 13 -4 16 -10z"/>
<path d="M6281 6783 c-1 -6 -4 -20 -7 -30 -5 -17 -5 -17 6 0 6 10 9 23 6 30
-3 9 -5 9 -5 0z"/>
<path d="M4440 6569 c0 -5 5 -7 10 -4 6 3 10 8 10 11 0 2 -4 4 -10 4 -5 0 -10
-5 -10 -11z"/>
<path d="M4420 6535 c0 -10 7 -15 18 -13 24 4 42 -10 36 -27 -5 -12 -1 -13 25
-4 17 6 31 14 31 18 0 4 -19 12 -42 19 -24 7 -49 15 -55 18 -8 3 -13 -1 -13
-11z"/>
<path d="M1418 6493 c7 -3 16 -2 19 1 4 3 -2 6 -13 5 -11 0 -14 -3 -6 -6z"/>
<path d="M4990 6255 c0 -4 36 -63 79 -130 44 -67 114 -182 156 -256 100 -173
288 -555 324 -655 53 -149 139 -399 169 -494 17 -52 31 -86 32 -74 0 29 -77
274 -135 429 -12 33 -35 92 -49 130 -15 39 -33 84 -41 100 -7 17 -30 68 -50
115 -80 187 -249 497 -373 682 -109 165 -112 169 -112 153z"/>
<path d="M6218 5743 c6 -2 18 -2 25 0 6 3 1 5 -13 5 -14 0 -19 -2 -12 -5z"/>
<path d="M5930 5434 c0 -1 6 -7 14 -13 10 -9 15 -8 19 3 4 10 0 14 -14 13 -10
-1 -19 -2 -19 -3z"/>
<path d="M1862 5263 c-64 -135 -141 -336 -203 -533 l-24 -75 -60 4 c-33 2 -61
4 -63 6 -3 3 27 153 48 240 12 51 12 65 1 65 -10 0 -50 -120 -80 -240 l-16
-65 -50 2 c-27 0 -84 -2 -125 -5 -92 -7 -58 -17 70 -21 46 -1 87 -4 89 -7 3
-2 -12 -77 -32 -167 -38 -162 -77 -443 -77 -548 0 -88 -11 -149 -26 -149 -8 0
-14 7 -14 15 0 18 -17 20 -23 3 -2 -7 -2 -4 1 7 2 11 6 38 7 60 l3 40 -7 -40
-8 -40 -3 50 -3 50 -7 -55 c-5 -30 -8 -88 -9 -127 -1 -81 0 -80 -91 -85 l-45
-3 60 -19 c33 -10 65 -20 71 -21 6 -2 16 -80 24 -201 22 -310 26 -280 -49
-326 -60 -36 -65 -38 -82 -22 -42 38 -126 222 -164 359 -10 33 -21 67 -25 75
-4 9 -11 36 -15 60 -8 43 -8 44 -16 17 -14 -51 50 -342 132 -601 10 -33 16
-62 13 -65 -17 -17 -132 171 -187 304 -92 227 -132 393 -158 659 -13 135 -7
373 11 500 6 38 8 72 5 75 -12 11 -24 -25 -30 -89 -3 -36 -15 -99 -25 -140
-37 -145 -80 -389 -84 -477 -3 -48 -3 -74 0 -58 9 54 13 61 28 39 7 -10 18
-35 26 -54 7 -19 40 -89 73 -155 33 -66 83 -185 112 -265 29 -80 63 -168 75
-195 76 -167 98 -208 157 -294 36 -53 76 -107 88 -121 25 -28 45 -105 75 -290
19 -119 37 -200 39 -172 1 6 -6 56 -14 111 -8 54 -14 127 -13 162 1 35 -2 74
-6 86 -6 19 -4 22 11 16 16 -6 16 -5 4 10 -7 9 -11 26 -8 37 5 19 -7 28 -16
13 -2 -5 -2 -1 1 7 7 22 3 63 -7 73 -5 5 -6 28 -3 53 3 31 1 44 -8 44 -8 0
-10 8 -6 23 3 15 -3 35 -19 60 -14 20 -25 44 -24 54 0 10 3 13 6 6 2 -7 12
-13 21 -13 12 0 13 3 4 12 -18 18 -15 38 6 38 11 0 23 13 30 34 14 38 45 54
67 36 15 -13 55 -5 55 11 0 5 5 9 10 9 15 0 12 -16 -5 -34 -14 -13 -13 -16 5
-26 19 -10 25 -4 21 22 0 3 7 5 17 3 9 -2 20 -4 23 -4 4 -1 6 -9 5 -18 -1 -22
45 -47 57 -30 6 8 7 6 3 -6 -3 -10 -2 -25 3 -35 14 -25 31 -105 32 -149 0 -31
2 -34 10 -18 6 14 7 5 3 -27 -4 -32 -3 -48 5 -48 8 0 11 -59 11 -197 0 -168 5
-237 25 -353 1 -8 5 -22 8 -30 3 -8 11 -58 17 -110 6 -52 14 -126 19 -165 5
-38 12 -171 16 -295 4 -124 11 -259 16 -300 5 -41 15 -142 24 -225 28 -281 99
-691 153 -884 31 -109 9 -73 -31 54 -100 313 -159 655 -173 988 -4 97 -11 164
-16 159 -5 -5 -10 -201 -11 -435 -1 -235 -5 -427 -9 -427 -5 0 -7 -21 -7 -47
1 -44 2 -46 10 -18 7 25 7 23 4 -12 -3 -26 -1 -43 5 -43 15 0 11 -93 -5 -114
-14 -18 -15 -16 -15 26 0 26 -6 53 -13 60 -8 7 -17 31 -22 53 -4 22 -10 35
-12 28 -2 -7 -11 -9 -19 -6 -17 6 -19 -26 -4 -77 6 -19 19 -77 30 -128 10 -52
27 -113 36 -138 15 -40 20 -44 52 -44 l35 0 -8 78 c-4 42 -11 120 -16 172 -4
52 -10 228 -13 390 -3 196 -2 268 4 214 5 -45 13 -108 20 -140 6 -32 17 -95
25 -140 30 -169 83 -354 151 -526 17 -46 34 -62 34 -35 0 8 3 7 10 -3 21 -34
17 2 -10 81 -50 147 -115 468 -140 694 -6 55 -15 125 -21 156 -26 151 -68
1024 -53 1086 6 21 16 14 120 -86 62 -60 134 -124 159 -142 25 -18 45 -36 45
-40 0 -5 -11 -24 -24 -43 -13 -20 -32 -68 -42 -108 -34 -130 -17 -450 33 -643
18 -70 45 -211 73 -380 21 -122 29 -159 35 -153 2 2 -10 82 -27 178 -16 96
-38 229 -48 295 -10 66 -23 140 -29 165 -49 223 -41 514 17 614 30 51 42 52
111 6 34 -23 66 -39 69 -35 4 4 0 10 -8 15 -99 55 -396 317 -479 422 -50 62
-63 141 -71 418 l-7 255 -57 194 c-31 107 -56 215 -57 240 0 26 -4 71 -8 101
-5 30 -7 57 -5 59 2 2 15 -21 28 -52 28 -62 53 -88 42 -43 -5 19 -3 26 4 21 9
-5 10 31 5 138 -7 140 -7 145 13 151 18 6 227 -20 243 -30 4 -2 5 -46 2 -98
-3 -51 -3 -110 1 -131 l7 -37 27 25 c37 35 96 45 122 22 28 -25 25 -55 -9 -92
-32 -35 -68 -48 -105 -39 l-24 6 19 -73 c21 -82 37 -124 81 -212 39 -78 132
-199 164 -214 35 -15 99 -14 134 4 31 16 64 71 49 81 -6 3 -11 4 -13 3 -1 -2
-10 -16 -19 -31 -18 -29 -76 -53 -110 -44 -44 11 -155 194 -191 315 -21 71
-21 72 12 55 15 -7 34 -14 43 -14 21 0 29 -11 69 -85 43 -79 58 -95 90 -95 31
0 52 20 73 73 31 73 62 31 55 -73 -4 -59 12 -63 29 -8 15 45 20 225 8 277 -5
26 -4 30 9 25 24 -9 20 9 -18 83 -19 38 -41 85 -50 107 -14 33 -14 37 -1 32 8
-3 15 -2 15 2 -1 27 -195 220 -267 265 -48 30 -53 45 -77 197 -24 156 -25 169
-27 330 l-1 155 -13 -70 c-8 -38 -17 -177 -21 -307 -4 -131 -11 -238 -16 -238
-18 0 -39 69 -52 170 -8 63 -14 87 -14 60 -1 -25 5 -81 12 -125 8 -44 12 -82
10 -84 -2 -3 -32 1 -67 7 -34 6 -101 15 -149 18 -49 4 -88 8 -88 10 0 1 13 85
30 186 30 186 70 381 112 543 l23 90 45 3 c34 3 47 -1 58 -15 10 -14 15 -15
21 -5 16 27 232 -31 441 -118 100 -41 68 -14 -40 35 -103 46 -241 90 -332 105
-67 12 -68 13 -69 44 -1 21 -3 24 -6 11 -8 -32 -17 -36 -62 -29 -41 7 -42 8
-35 38 15 74 84 257 139 371 31 63 31 55 0 -100 -13 -70 -27 -157 -29 -194 -3
-36 -3 -55 0 -41 33 179 112 511 155 654 19 62 0 31 -69 -111z m-235 -638 c2
-1 -6 -33 -16 -71 -46 -163 -117 -522 -133 -666 -12 -107 -12 -108 -39 -108
l-26 0 3 83 c16 333 60 733 86 764 6 7 28 10 66 6 31 -3 58 -7 59 -8z m-223
-602 c-8 -256 -7 -248 -30 -248 -18 0 -19 7 -16 100 3 101 28 331 38 346 3 5
7 9 10 9 3 0 2 -93 -2 -207z m-708 -210 c-1 -1 -17 10 -34 25 l-32 27 15 65
c8 36 21 79 28 95 11 27 13 18 19 -90 4 -65 6 -120 4 -122z m1198 8 c8 -25 17
-61 21 -78 l6 -32 -30 10 -31 11 1 111 c1 93 3 104 10 68 5 -25 15 -65 23 -90z
m-1217 -38 c26 -24 32 -39 42 -103 6 -41 14 -88 17 -105 l6 -30 -23 35 c-25
40 -75 159 -84 202 -8 35 2 35 42 1z m649 -70 c-10 -10 -19 5 -10 18 6 11 8
11 12 0 2 -7 1 -15 -2 -18z m64 13 c0 -8 -7 -17 -16 -20 -23 -9 -24 -8 -24 14
0 13 7 20 20 20 11 0 20 -6 20 -14z m47 8 c-3 -3 -12 -4 -19 -1 -8 3 -5 6 6 6
11 1 17 -2 13 -5z m-47 -201 c6 -32 15 -71 20 -88 5 -16 11 -64 14 -105 l5
-75 -30 95 c-16 52 -34 109 -39 126 -15 47 -13 104 4 104 10 0 18 -20 26 -57z
m560 -49 c0 -2 -7 -4 -15 -4 -8 0 -15 4 -15 10 0 5 7 7 15 4 8 -4 15 -8 15
-10z m-513 -246 c-3 -8 -6 -5 -6 6 -1 11 2 17 5 13 3 -3 4 -12 1 -19z m526
-24 c11 -12 -13 -44 -33 -44 -24 0 -25 8 -3 32 17 19 26 22 36 12z m247 -34
c0 -5 -4 -10 -10 -10 -5 0 -10 5 -10 10 0 6 5 10 10 10 6 0 10 -4 10 -10z
m-71 -90 c12 -62 9 -80 -13 -80 -34 0 -57 91 -36 145 11 28 13 29 24 12 8 -9
19 -44 25 -77z m-1081 -13 c17 -51 33 -111 37 -133 4 -21 9 -48 11 -59 2 -11
-5 -2 -15 20 -11 22 -20 46 -20 53 -1 8 -8 28 -15 45 -13 27 -36 131 -36 159
0 24 11 -2 38 -85z m302 14 c0 -5 -9 -19 -19 -32 -17 -21 -21 -22 -43 -10
l-25 13 26 27 c19 20 31 25 44 19 9 -5 17 -13 17 -17z m-289 -232 c63 -69 67
-78 74 -134 l7 -60 -31 35 c-51 57 -181 286 -181 319 0 3 15 -15 33 -40 17
-25 62 -79 98 -120z m92 115 c8 -8 -3 -34 -14 -34 -5 0 -9 9 -9 20 0 19 11 26
23 14z"/>
<path d="M1310 3080 c-18 -14 -21 -20 -9 -20 9 0 24 9 34 20 23 26 8 26 -25 0z"/>
<path d="M6579 5375 c6 -11 34 -45 62 -75 28 -30 42 -41 31 -25 -27 40 -106
125 -93 100z"/>
<path d="M7425 5306 c17 -15 44 -33 60 -42 l30 -15 -30 26 c-16 14 -43 33 -60
41 l-30 16 30 -26z"/>
<path d="M5760 5275 c-11 -13 -10 -27 6 -77 17 -57 19 -59 27 -34 10 29 1 80
-11 72 -5 -3 -6 8 -4 25 5 33 0 36 -18 14z"/>
<path d="M7550 5216 c0 -2 7 -7 16 -10 8 -3 12 -2 9 4 -6 10 -25 14 -25 6z"/>
<path d="M7515 5140 c7 -22 24 -46 58 -82 9 -10 17 -23 17 -30 0 -6 3 -8 6 -5
4 4 22 -15 40 -41 19 -26 34 -40 34 -33 0 8 -21 41 -46 73 -25 32 -42 63 -39
68 6 10 -22 40 -58 61 -17 9 -18 8 -12 -11z"/>
<path d="M7480 5146 c0 -2 7 -9 15 -16 13 -11 14 -10 9 4 -5 14 -24 23 -24 12z"/>
<path d="M7701 4983 c58 -60 119 -126 137 -148 18 -22 32 -36 32 -31 0 21
-245 286 -264 286 -5 0 37 -48 95 -107z"/>
<path d="M2845 5023 c-9 -32 -34 -112 -56 -179 -21 -66 -41 -143 -44 -170 -5
-45 -3 -41 33 51 36 95 59 145 66 145 1 0 2 -8 2 -17 -2 -50 16 -363 22 -387
4 -16 8 116 7 293 0 176 -3 321 -7 321 -4 0 -14 -26 -23 -57z"/>
<path d="M6677 4999 c3 -10 9 -16 14 -13 5 3 6 -8 3 -24 -4 -20 -1 -34 11 -46
13 -12 15 -26 10 -56 -4 -22 -11 -42 -16 -46 -5 -3 -9 -22 -9 -42 l1 -37 20
24 c11 14 17 31 14 42 -4 11 -2 19 4 19 6 0 10 9 8 19 -3 28 17 27 23 -1 4
-16 8 -19 14 -10 12 19 29 14 23 -8 -3 -11 -2 -22 3 -25 13 -8 45 -77 63 -135
18 -61 54 -304 65 -450 8 -89 9 -92 16 -49 11 67 -27 389 -63 526 -46 173
-126 330 -126 247 0 -26 -39 -26 -43 1 -3 19 -2 19 11 3 16 -20 32 -24 20 -5
-4 6 -6 21 -5 32 2 17 1 17 -7 5 -9 -12 -11 -11 -11 6 0 12 -10 25 -24 32 -21
9 -23 8 -19 -9z m93 -119 c0 -5 -2 -10 -4 -10 -3 0 -8 5 -11 10 -3 6 -1 10 4
10 6 0 11 -4 11 -10z"/>
<path d="M4580 4945 c0 -5 9 -55 21 -110 16 -82 21 -153 26 -399 l6 -299 -24
5 c-13 3 -50 13 -83 22 -32 8 -111 25 -175 37 -101 19 -138 21 -281 15 -142
-5 -275 -20 -382 -42 -16 -3 -28 -10 -28 -16 0 -6 12 -8 32 -4 172 34 520 48
663 27 39 -6 115 -23 169 -38 l99 -26 -7 -141 c-4 -78 -13 -181 -21 -231 -8
-49 -14 -99 -14 -110 2 -41 28 104 44 245 9 80 19 162 23 183 6 35 9 37 26 24
17 -12 18 -31 17 -285 0 -149 3 -274 8 -276 16 -10 21 68 21 307 0 130 4 237
8 237 13 0 182 -99 250 -146 35 -24 65 -44 67 -44 26 0 -168 136 -260 182 -33
17 -63 36 -67 42 -4 6 -8 40 -8 76 -1 115 -37 415 -65 530 -7 30 -18 90 -25
133 -7 42 -19 85 -26 95 -7 9 -13 13 -14 7z m99 -787 c1 -29 -3 -38 -15 -38
-13 0 -15 9 -10 58 3 31 6 75 7 97 2 35 3 32 9 -20 4 -33 8 -77 9 -97z"/>
<path d="M7895 4766 c10 -14 19 -26 22 -26 7 0 -17 39 -28 46 -6 3 -3 -5 6
-20z"/>
<path d="M7788 4748 c16 -28 74 -134 121 -226 7 -13 15 -22 17 -19 10 10 -134
277 -149 277 -5 0 0 -15 11 -32z"/>
<path d="M6477 4593 c-12 -12 -7 -22 8 -17 8 4 15 10 15 15 0 11 -14 12 -23 2z"/>
<path d="M1746 4528 c-8 -30 -6 -387 2 -458 4 -30 7 65 7 212 0 148 -1 268 -1
268 -1 0 -4 -10 -8 -22z"/>
<path d="M7930 4481 c0 -5 5 -13 10 -16 6 -3 10 -2 10 4 0 5 -4 13 -10 16 -5
3 -10 2 -10 -4z"/>
<path d="M7950 4445 c0 -5 5 -17 10 -25 5 -8 10 -10 10 -5 0 6 -5 17 -10 25
-5 8 -10 11 -10 5z"/>
<path d="M3005 4375 c13 -70 6 -551 -9 -675 -20 -156 -58 -296 -112 -409 -24
-51 -44 -96 -44 -100 0 -3 20 30 45 73 47 85 96 245 114 376 27 182 41 322 42
405 l0 90 24 -85 c55 -201 94 -464 96 -640 0 -68 3 -98 9 -85 23 55 -8 360
-76 730 -20 110 -39 215 -41 233 -3 17 -9 32 -14 32 -5 0 -9 12 -9 28 0 15 -8
36 -16 47 -15 19 -16 18 -9 -20z"/>
<path d="M2645 4335 c-4 -27 -11 -60 -16 -72 -5 -13 -18 -78 -29 -145 -30
-177 -33 -195 -22 -178 5 8 17 71 27 140 10 69 21 130 25 135 11 15 33 142 27
157 -2 7 -8 -9 -12 -37z"/>
<path d="M2884 4280 c0 -58 1 -81 3 -52 2 28 2 76 0 105 -2 28 -3 5 -3 -53z"/>
<path d="M8000 4335 c0 -5 5 -17 10 -25 5 -8 10 -10 10 -5 0 6 -5 17 -10 25
-5 8 -10 11 -10 5z"/>
<path d="M8242 4290 c0 -14 2 -19 5 -12 2 6 2 18 0 25 -3 6 -5 1 -5 -13z"/>
<path d="M7102 4245 c0 -16 2 -22 5 -12 2 9 2 23 0 30 -3 6 -5 -1 -5 -18z"/>
<path d="M5925 4231 c-3 -5 -1 -12 5 -16 5 -3 10 1 10 9 0 18 -6 21 -15 7z"/>
<path d="M7117 4125 c5 -80 18 -168 48 -340 8 -49 20 -139 25 -200 6 -60 24
-168 40 -240 17 -71 37 -184 45 -250 14 -120 71 -467 81 -495 3 -7 14 -59 24
-113 11 -55 22 -103 26 -106 10 -9 -4 103 -26 204 -29 136 -58 294 -65 355
l-7 55 17 -30 c9 -16 22 -37 29 -45 7 -8 46 -73 86 -145 40 -71 88 -155 105
-185 18 -30 39 -73 46 -95 8 -22 18 -43 23 -46 5 -4 6 -15 2 -24 -6 -16 -4
-16 10 -4 15 12 16 12 11 -6 -4 -11 0 -40 8 -65 7 -25 14 -38 15 -30 1 8 9
-14 17 -50 12 -51 17 -61 24 -45 5 15 7 9 7 -20 -1 -39 29 -137 42 -143 4 -1
5 -15 3 -30 -3 -25 -3 -25 8 -6 8 17 5 33 -15 82 -29 68 -31 76 -15 67 17 -11
129 -278 129 -308 0 -7 6 -21 14 -32 12 -18 34 -71 101 -250 45 -120 125 -366
195 -605 17 -58 39 -132 50 -165 50 -158 65 -429 31 -590 -10 -50 -15 -94 -11
-99 34 -36 131 630 165 1134 14 206 21 649 11 639 -3 -3 -10 -137 -15 -299
-12 -330 -35 -602 -57 -670 -19 -60 -44 -96 -54 -80 -10 16 -34 -25 -26 -45 3
-8 1 -17 -4 -20 -6 -4 -10 18 -11 52 0 37 -3 51 -8 39 -6 -16 -11 -10 -25 30
-9 27 -26 82 -37 123 -10 40 -31 106 -45 145 -36 95 -111 308 -134 376 -26 79
-58 166 -86 238 -14 35 -23 70 -20 78 3 8 2 12 -4 9 -5 -3 -6 9 -3 29 3 19 2
43 -2 53 -6 16 -8 15 -17 -7 -10 -24 -10 -24 -18 -5 -5 11 -9 27 -9 35 -1 13
0 13 9 0 16 -25 11 2 -11 60 -12 30 -33 91 -47 135 -14 44 -28 82 -32 85 -4 3
-12 27 -19 55 -7 27 -16 52 -21 55 -5 3 -22 41 -38 85 -17 44 -38 103 -49 130
-10 28 -22 53 -27 56 -5 4 -6 14 -3 24 4 9 3 14 -2 11 -5 -3 -11 5 -13 18 -4
17 -1 23 9 19 17 -7 17 5 -2 23 -8 9 -19 13 -24 9 -9 -5 -3 27 14 68 4 10 3
17 -4 17 -6 0 -11 -10 -11 -22 0 -17 -3 -19 -12 -10 -8 8 -8 15 2 27 10 12 10
19 2 27 -9 9 -12 9 -12 0 0 -7 -4 -12 -10 -12 -5 0 -10 7 -10 15 0 8 5 15 10
15 6 0 10 7 10 16 0 8 -4 13 -9 10 -5 -3 -15 2 -22 11 -11 13 -11 15 -1 9 10
-6 11 -1 6 21 l-6 28 26 -30 27 -30 -15 32 c-21 42 -34 49 -44 22 -8 -19 -9
-20 -15 -5 -4 9 -1 27 7 39 12 20 10 28 -17 77 -21 39 -28 46 -23 25 4 -16 13
-41 20 -55 13 -27 11 -50 -5 -50 -5 0 -8 8 -7 18 3 34 -2 53 -12 47 -5 -3 -10
3 -10 14 0 11 -5 23 -11 26 -7 5 -4 14 8 28 17 19 17 20 0 14 -13 -5 -22 4
-38 39 -12 24 -19 47 -16 50 3 3 11 -11 18 -30 7 -20 17 -36 22 -36 5 0 6 8 2
18 -4 9 -12 30 -18 46 -5 16 -18 37 -29 48 -19 19 -26 88 -8 88 6 0 10 4 10 9
0 5 -12 9 -26 9 -37 0 -47 13 -34 47 11 29 8 61 -13 125 -14 45 -27 60 -27 33
0 -12 5 -25 10 -28 15 -10 12 -45 -5 -45 -7 0 -19 -8 -24 -17 -9 -16 -10 -16
-11 5 0 12 5 22 10 22 6 0 10 12 9 28 0 24 -1 25 -9 7 -7 -15 -9 -9 -11 28 -1
26 -3 52 -4 57 -1 6 -3 31 -4 56 -1 34 -5 45 -14 41 -10 -4 -17 13 -27 59 -7
36 -10 68 -6 71 3 4 7 -1 7 -10 1 -10 3 -21 4 -27 1 -5 3 -17 4 -25 0 -8 6
-15 12 -15 7 0 8 12 4 33 -11 57 -16 67 -30 67 -21 0 -30 21 -14 32 11 7 11
11 2 15 -7 2 -13 17 -14 31 l-1 27 -7 -25 c-6 -20 -10 -11 -19 45 -6 39 -18
97 -26 130 l-15 60 6 -80z m100 -437 c-3 -8 -6 -5 -6 6 -1 11 2 17 5 13 3 -3
4 -12 1 -19z m97 -247 c-4 -20 -10 -28 -14 -21 -4 7 -13 9 -19 6 -12 -8 -15
13 -3 30 7 10 34 24 40 19 1 -1 -1 -16 -4 -34z m16 -91 c11 -6 23 -25 28 -43
6 -17 13 -40 17 -49 4 -11 3 -18 -4 -18 -6 0 -11 7 -11 15 0 22 -30 77 -49 92
-20 15 -7 17 19 3z m20 -234 c0 -3 -4 -8 -10 -11 -5 -3 -10 -1 -10 4 0 6 5 11
10 11 6 0 10 -2 10 -4z m20 -30 c0 -3 -4 -8 -10 -11 -5 -3 -10 -1 -10 4 0 6 5
11 10 11 6 0 10 -2 10 -4z m3 -51 c-3 -9 -8 -14 -10 -11 -3 3 -2 9 2 15 9 16
15 13 8 -4z m27 -40 c11 -13 8 -15 -14 -13 -26 2 -32 9 -19 21 10 11 19 8 33
-8z m17 -47 c-3 -8 -6 -5 -6 6 -1 11 2 17 5 13 3 -3 4 -12 1 -19z m39 -84 c-4
-9 -9 -15 -11 -12 -3 3 -3 13 1 22 4 9 9 15 11 12 3 -3 3 -13 -1 -22z m54
-138 l-1 -31 -14 34 c-18 41 -18 42 0 35 9 -4 15 -19 15 -38z m30 -12 c0 -8
-4 -12 -10 -9 -5 3 -10 13 -10 21 0 8 5 12 10 9 6 -3 10 -13 10 -21z m8 -44
c-7 -10 -14 -17 -17 -15 -4 4 18 35 25 35 2 0 -1 -9 -8 -20z m59 -107 c8 -12
13 -29 10 -37 -3 -8 -1 -17 6 -19 9 -3 9 -8 1 -17 -9 -9 -14 -5 -19 20 -8 39
-35 91 -35 70 -1 -8 -7 0 -15 18 -11 26 -12 39 -4 55 11 19 13 17 26 -23 8
-24 22 -54 30 -67z m56 -135 c4 -10 2 -18 -2 -18 -8 0 -31 52 -31 69 0 8 26
-32 33 -51z m-2 -55 c-8 -15 -10 -15 -11 -2 0 17 10 32 18 25 2 -3 -1 -13 -7
-23z m662 -1608 c-8 -22 -22 -18 -16 5 3 11 9 17 14 15 4 -3 6 -12 2 -20z"/>
<path d="M7550 2631 c0 -6 4 -13 10 -16 6 -3 7 1 4 9 -7 18 -14 21 -14 7z"/>
<path d="M1283 4135 c0 -27 2 -38 4 -22 2 15 2 37 0 50 -2 12 -4 0 -4 -28z"/>
<path d="M4233 4033 c-3 -169 -43 -413 -93 -563 -19 -59 -38 -147 -21 -100 31
85 82 260 101 348 15 63 27 99 33 93 5 -5 12 -125 16 -267 l8 -259 1 330 c2
287 -6 449 -24 533 -11 54 -20 12 -21 -115z"/>
<path d="M2452 4093 c-6 -21 -14 -59 -17 -86 -4 -26 -10 -45 -14 -42 -5 2 -7
-14 -6 -38 1 -23 0 -29 -2 -12 -4 25 -8 18 -28 -50 -13 -44 -27 -114 -31 -155
-3 -41 -12 -111 -19 -155 -7 -44 -12 -81 -10 -83 4 -5 29 67 66 195 18 62 34
111 36 109 2 -2 8 -28 13 -57 33 -195 44 -244 71 -327 17 -51 42 -105 56 -120
l24 -27 -15 31 c-9 18 -18 50 -22 73 -4 23 -10 44 -15 46 -4 3 -5 22 -3 43 4
30 3 34 -6 19 -6 -9 -8 -22 -5 -27 3 -6 3 -10 -2 -10 -4 0 -19 51 -33 113 -23
104 -25 130 -23 355 0 133 0 242 -1 242 -2 0 -8 -17 -14 -37z"/>
<path d="M1277 4025 c7 -49 13 -58 13 -19 0 16 -5 36 -10 44 -6 10 -7 2 -3
-25z"/>
<path d="M8202 4005 c0 -16 2 -22 5 -12 2 9 2 23 0 30 -3 6 -5 -1 -5 -18z"/>
<path d="M1282 3950 c0 -14 2 -19 5 -12 2 6 2 18 0 25 -3 6 -5 1 -5 -13z"/>
<path d="M2555 3837 c-4 -46 -5 -92 -3 -103 2 -10 8 25 12 79 4 55 5 101 3
104 -3 2 -8 -33 -12 -80z"/>
<path d="M8207 3854 c-3 -5 1 -22 8 -39 13 -29 13 -29 14 -5 1 28 -14 57 -22
44z"/>
<path d="M5427 3811 c-4 -18 -7 -58 -7 -87 0 -154 -73 -509 -148 -724 -25 -71
-64 -148 -69 -135 -2 6 8 76 21 155 14 80 21 149 16 154 -9 9 -8 11 -45 -129
-15 -55 -43 -132 -62 -172 -40 -81 -31 -80 -138 -17 -38 23 -95 56 -125 73
-30 18 -44 29 -30 25 24 -7 24 -6 -5 18 -16 14 -60 42 -97 62 -57 32 -67 41
-63 59 9 44 25 141 25 156 0 9 -3 11 -9 6 -5 -6 -14 -45 -19 -88 -6 -43 -13
-81 -16 -84 -3 -3 -19 0 -36 5 -28 10 -34 8 -70 -25 -45 -40 -50 -36 -19 13
l21 34 -28 10 c-87 34 -287 82 -409 99 -181 26 -793 43 -780 21 6 -10 41 -12
159 -8 83 3 138 3 121 1 -53 -6 -210 -45 -219 -54 -6 -5 4 -9 24 -9 34 0 34 0
15 -20 -27 -26 -152 -90 -176 -90 -12 0 -17 -5 -14 -10 4 -7 -3 -9 -22 -5 -27
5 -27 5 -3 -5 23 -11 56 -7 210 21 25 4 105 8 179 8 l133 1 -6 -23 c-12 -50
-18 -137 -12 -173 7 -36 8 -37 19 -14 19 36 60 62 110 67 36 4 49 1 66 -16 22
-22 28 -70 12 -100 -9 -15 -6 -17 20 -13 23 3 29 1 29 -15 0 -23 -19 -48 -42
-56 -19 -7 -52 19 -43 34 8 12 -2 11 -45 -5 -39 -14 -78 -1 -106 37 -15 21
-15 19 -9 -33 10 -74 50 -211 79 -268 37 -72 133 -168 181 -180 81 -21 212
-14 267 14 15 8 64 50 109 94 45 44 89 80 96 80 9 0 12 7 9 18 -3 9 -1 24 4
32 7 12 12 12 29 -4 12 -11 21 -14 21 -9 0 6 -7 16 -15 23 -23 19 1 55 90 135
42 39 78 72 81 75 3 3 3 -6 0 -20 -17 -80 -80 -332 -91 -370 -8 -25 -39 -133
-70 -240 -96 -329 -103 -349 -150 -383 -56 -42 -176 -96 -345 -157 -153 -54
-187 -69 -160 -70 27 0 115 27 242 74 69 25 133 46 142 46 20 0 86 -50 86 -65
0 -13 -208 -651 -226 -692 -8 -17 -14 -36 -14 -42 0 -5 -20 -24 -45 -41 -54
-37 -59 -56 -10 -36 49 21 50 29 -30 -249 -36 -127 -117 -516 -110 -524 9 -8
25 21 25 45 0 27 56 298 81 394 49 186 72 270 94 340 76 246 138 437 222 685
129 383 255 777 313 981 19 67 26 81 40 77 24 -6 32 9 33 63 0 28 3 40 8 32 6
-8 9 -1 9 20 0 20 -4 31 -10 27 -5 -3 -10 -2 -10 4 0 5 5 13 10 16 6 3 10 1
10 -4 0 -6 5 -11 10 -11 18 0 10 29 -10 35 -11 3 -20 14 -20 23 0 10 3 13 8 6
4 -6 15 -13 24 -17 15 -5 16 -2 8 19 -13 34 -13 37 5 30 9 -3 15 0 15 10 0 18
5 17 82 -19 45 -21 62 -37 37 -37 -5 0 -7 -4 -4 -10 3 -5 16 -10 28 -10 18 0
19 2 7 10 -13 8 -12 10 3 10 9 0 17 -4 17 -10 0 -5 7 -10 15 -10 8 0 15 5 15
11 0 6 5 9 12 7 6 -2 20 4 30 14 10 10 26 18 36 18 14 -1 14 -3 -5 -19 l-23
-19 35 1 c19 1 35 5 35 9 0 17 17 7 28 -17 14 -31 15 -35 3 -35 -5 0 -11 10
-14 23 -2 12 -2 -13 1 -56 4 -69 3 -77 -12 -71 -10 4 -16 1 -16 -9 0 -8 6 -18
13 -20 10 -4 10 -6 0 -6 -7 -1 -13 -8 -13 -16 0 -8 -4 -15 -9 -15 -5 0 -11 -9
-14 -20 -3 -13 0 -20 9 -20 23 0 16 -19 -8 -24 -28 -6 -87 -2 -108 7 -8 3 -24
8 -35 11 -11 3 1 3 27 1 40 -4 50 -1 63 18 14 21 14 22 -7 29 -13 3 -39 6 -58
7 l-35 0 38 -14 c57 -20 56 -25 -1 -25 -29 0 -52 -4 -52 -9 0 -4 -12 -7 -27
-4 -24 3 -25 2 -8 -6 46 -20 135 -41 178 -41 25 0 47 -5 49 -11 4 -11 -31
-157 -70 -294 -11 -38 -29 -106 -41 -150 -12 -44 -28 -96 -36 -115 -7 -19 -23
-66 -35 -105 -34 -108 -83 -229 -145 -359 -31 -65 -54 -120 -52 -123 3 -2 22
16 43 42 22 25 50 53 63 62 14 9 -1 -15 -34 -53 -32 -38 -78 -100 -103 -139
-25 -38 -53 -81 -62 -95 -9 -14 -22 -42 -29 -62 -7 -21 -16 -40 -20 -43 -5 -2
-14 -25 -21 -50 -7 -25 -16 -45 -21 -45 -5 0 -6 -7 -3 -15 4 -8 2 -15 -3 -15
-9 0 -37 -64 -38 -86 0 -6 -7 -21 -16 -35 -24 -36 -74 -191 -98 -303 -12 -54
-26 -107 -32 -118 -6 -11 -8 -32 -5 -46 5 -20 4 -23 -4 -12 -8 12 -10 11 -10
-8 0 -13 -6 -30 -14 -37 -12 -13 -14 5 -15 121 0 85 -5 141 -12 150 -6 7 -8
18 -4 25 6 8 10 7 17 -2 6 -9 7 -5 1 11 -17 53 8 298 61 610 14 80 28 164 31
187 3 23 12 72 20 110 8 37 14 77 14 88 -1 40 -29 -44 -43 -132 -8 -48 -28
-167 -45 -263 -55 -327 -111 -841 -111 -1030 l0 -69 47 2 48 2 8 50 c30 182
145 579 227 784 70 173 105 241 180 346 70 98 215 255 236 255 30 0 146 -58
230 -116 171 -118 313 -299 469 -599 43 -82 85 -163 92 -180 8 -16 18 -37 23
-45 5 -8 37 -69 71 -135 163 -318 189 -365 206 -365 7 0 13 2 13 5 0 10 -174
341 -218 413 -24 41 -42 75 -39 78 18 19 334 64 451 64 36 0 47 3 36 10 -8 5
-33 10 -55 10 -46 0 -234 -24 -350 -45 -44 -8 -83 -15 -87 -15 -7 0 -88 137
-88 150 0 5 6 11 13 13 6 3 3 6 -8 6 -15 1 -36 29 -78 104 -84 147 -93 162
-170 267 -85 116 -217 247 -319 318 -42 28 -79 52 -81 52 -3 0 -26 9 -52 20
l-47 20 57 63 c83 91 162 199 185 252 29 67 24 68 -13 3 -47 -84 -122 -170
-209 -242 -61 -50 -82 -62 -102 -59 -49 10 -47 23 21 158 36 72 82 171 103
220 l36 90 80 6 c43 3 91 9 107 14 24 6 27 4 27 -16 l1 -24 14 26 c10 18 33
33 74 49 53 20 112 55 291 176 56 38 145 96 234 153 27 17 54 31 59 31 6 0 8
3 5 6 -8 7 -166 -78 -233 -125 -159 -111 -245 -162 -354 -207 l-53 -23 6 52
c4 29 11 106 16 172 5 66 13 152 16 192 l7 72 91 30 c97 32 174 54 271 77 33
8 89 23 125 34 l65 20 -55 -6 c-64 -7 -276 -61 -405 -103 -108 -35 -104 -40
-96 107 3 56 3 102 -1 102 -7 0 -23 -41 -20 -52 1 -5 -2 -7 -7 -5 -8 2 -81
-79 -81 -92 0 -4 -8 -16 -18 -27 -35 -37 -50 -69 -58 -119 -4 -27 -7 -53 -6
-57 1 -5 -3 -8 -9 -8 -8 0 -7 -5 1 -15 15 -19 5 -34 -12 -17 -8 8 -9 18 -1 34
6 13 16 57 23 98 7 41 18 82 25 90 14 18 45 85 45 97 0 4 -5 1 -10 -7 -7 -11
-9 -3 -6 28 2 23 7 41 12 40 5 -2 8 -14 6 -28 l-3 -25 16 22 c27 38 55 107 55
136 0 16 4 26 9 23 5 -4 13 8 16 26 4 18 15 49 25 68 56 113 127 676 103 815
l-9 50 -7 -34z m-830 -919 l23 -17 -26 -65 c-29 -74 -48 -116 -39 -87 3 10 5
57 5 103 0 46 3 84 8 84 4 0 17 -8 29 -18z m654 -49 c-12 -20 -14 -14 -5 12 4
9 9 14 11 11 3 -2 0 -13 -6 -23z m-1071 -102 c0 -104 -23 -151 -63 -129 -17 9
-19 18 -15 78 5 72 29 119 61 120 15 0 17 -10 17 -69z m212 42 c24 -21 23 -40
-3 -54 -18 -9 -25 -7 -41 9 -16 16 -18 23 -9 41 14 25 28 27 53 4z m628 -13
c0 -5 -4 -10 -10 -10 -5 0 -10 5 -10 10 0 6 5 10 10 10 6 0 10 -4 10 -10z
m-1108 -71 l79 -22 31 -68 c33 -74 35 -75 106 -85 48 -6 49 -6 93 42 l44 49
60 -15 c100 -26 101 -26 60 -94 -19 -33 -34 -66 -33 -75 2 -11 -6 -17 -27 -19
-16 -2 -37 -10 -45 -17 -8 -7 -42 -27 -75 -45 -51 -27 -66 -30 -105 -25 -102
15 -191 89 -250 207 -32 64 -40 91 -40 134 0 35 4 54 12 54 6 0 47 -10 90 -21z
m1358 -138 c0 -51 -3 -59 -21 -64 -19 -5 -20 -3 -14 36 8 47 22 87 30 87 3 0
5 -26 5 -59z m16 -254 c8 -165 -7 -291 -35 -302 -9 -4 -55 -9 -102 -12 l-87
-6 26 75 26 74 55 -12 c61 -15 80 -11 35 7 -16 6 -39 15 -51 20 -30 11 -29 28
6 135 16 49 34 108 40 131 9 31 18 44 39 51 19 6 29 6 34 -3 4 -7 11 -78 14
-158z m-167 33 c0 -10 -3 -8 -9 5 -12 27 -12 43 0 25 5 -8 9 -22 9 -30z m-2
-82 c-3 -8 -6 -5 -6 6 -1 11 2 17 5 13 3 -3 4 -12 1 -19z m-31 -76 c-11 -10
-14 3 -8 33 l7 30 3 -28 c2 -16 1 -31 -2 -35z m-34 -84 c-6 -6 -9 0 -9 18 0
23 1 24 9 10 7 -12 7 -21 0 -28z m-92 -612 c0 -2 -7 -7 -16 -10 -8 -3 -12 -2
-9 4 6 10 25 14 25 6z m-120 -55 c-19 -16 -36 -28 -38 -26 -9 9 35 54 53 54
17 0 14 -5 -15 -28z m80 25 c0 -2 -8 -10 -17 -17 -16 -13 -17 -12 -4 4 13 16
21 21 21 13z m-650 -1241 c0 -14 -4 -25 -10 -25 -11 0 -14 33 -3 43 11 11 13
8 13 -18z m3 -122 c-10 -26 -19 -3 -14 39 l4 43 8 -34 c4 -19 5 -40 2 -48z"/>
<path d="M3287 3813 c-3 -5 -11 -65 -17 -133 -6 -69 -18 -156 -26 -193 -8 -38
-14 -74 -13 -80 1 -16 38 113 54 188 l12 60 8 -69 c4 -39 11 -81 16 -95 12
-41 11 96 -2 207 -11 97 -21 133 -32 115z"/>
<path d="M8233 3690 c0 -36 2 -50 4 -32 2 17 2 47 0 65 -2 17 -4 3 -4 -33z"/>
<path d="M2543 3650 c0 -36 2 -50 4 -32 2 17 2 47 0 65 -2 17 -4 3 -4 -33z"/>
<path d="M4516 3689 c-2 -8 -9 -45 -15 -84 -5 -38 -19 -115 -31 -169 -11 -55
-18 -101 -16 -104 3 -2 10 23 17 57 16 76 33 80 27 5 -3 -31 -1 -49 3 -42 5 8
13 88 18 178 10 150 9 196 -3 159z"/>
<path d="M8251 3638 c1 -42 3 -48 9 -28 12 36 12 80 0 80 -6 0 -10 -24 -9 -52z"/>
<path d="M581 3604 c0 -11 3 -14 6 -6 3 7 2 16 -1 19 -3 4 -6 -2 -5 -13z"/>
<path d="M4566 3549 c-4 -33 -5 -63 -3 -66 3 -2 8 23 12 57 4 34 5 63 2 66 -2
3 -7 -23 -11 -57z"/>
<path d="M8232 3515 l1 -100 8 71 c4 39 4 84 -1 100 -6 21 -8 1 -8 -71z"/>
<path d="M4046 3465 c-10 -27 -31 -85 -48 -128 -17 -43 -28 -80 -25 -83 3 -3
10 4 17 15 13 25 30 28 30 4 0 -34 9 -5 30 99 25 123 23 169 -4 93z"/>
<path d="M568 3435 c-4 -21 -5 -73 -2 -115 6 -89 -5 -79 -32 30 -10 41 -20 66
-22 55 -1 -11 11 -72 28 -135 48 -175 50 -154 -32 -248 -93 -105 -205 -205
-374 -333 -74 -55 -134 -105 -134 -111 0 -12 11 -5 106 72 45 36 114 90 154
120 40 30 81 63 91 72 27 25 69 51 75 46 2 -3 -10 -17 -28 -31 -53 -41 -110
-98 -164 -161 -58 -70 -25 -54 46 21 68 73 135 124 246 186 55 31 103 57 107
57 4 0 14 -14 22 -31 9 -17 19 -28 23 -25 3 4 0 12 -6 18 -25 25 -13 62 28 90
l40 28 0 -23 c0 -33 -19 -138 -29 -162 -14 -33 -62 -378 -55 -402 3 -11 -3
-57 -15 -101 -11 -43 -23 -119 -25 -168 -7 -123 -34 -477 -45 -604 -13 -140
-20 -245 -31 -495 -9 -207 -10 -212 -51 -340 -54 -170 -129 -361 -223 -567
-42 -92 -76 -170 -76 -173 0 -15 17 -1 28 23 140 290 248 560 337 837 111 347
119 378 174 665 17 85 35 175 40 200 20 92 32 160 56 335 14 99 36 256 50 349
13 92 26 207 29 255 2 47 2 73 -1 56 -2 -16 -9 -34 -15 -40 -7 -7 -8 -1 -4 20
3 17 2 36 -2 43 -5 8 -12 -44 -16 -125 -4 -76 -13 -183 -20 -238 -42 -304 -58
-413 -65 -440 -5 -16 -19 -86 -32 -155 -14 -83 -28 -131 -39 -142 -10 -9 -20
-15 -22 -12 -3 2 -9 -6 -15 -19 -25 -53 -33 -98 -34 -187 -1 -62 -7 -107 -17
-130 -9 -19 -19 -48 -23 -65 l-6 -30 -2 27 c0 15 6 46 15 68 13 32 15 64 10
169 -4 90 -2 138 6 156 9 19 9 28 0 37 -15 15 -16 48 -2 48 21 0 32 -53 20
-91 -7 -20 -10 -43 -7 -50 3 -8 6 -4 6 9 1 13 10 35 21 49 11 14 20 36 20 49
0 34 20 40 21 7 1 -25 2 -24 11 10 11 41 3 61 -13 37 -7 -11 -9 -4 -7 25 2 22
-1 40 -7 40 -5 0 -8 -13 -7 -29 3 -26 2 -28 -12 -17 -14 12 -16 10 -16 -12 0
-14 4 -28 10 -32 5 -3 6 -13 3 -21 -10 -27 -33 55 -33 116 1 30 1 104 1 164 0
61 4 115 9 121 5 6 9 20 9 30 0 11 2 31 5 45 6 39 44 402 44 430 0 14 7 57 15
96 16 74 41 248 52 368 5 48 4 66 -4 62 -6 -4 -11 -13 -11 -20 0 -20 -27 -40
-35 -26 -3 6 -12 7 -18 3 -7 -4 -5 2 3 12 13 17 13 18 0 13 -17 -6 -19 4 -20
79 0 23 5 54 10 68 13 35 12 55 -2 30 -30 -54 -81 -125 -89 -125 -5 0 -7 12
-3 28 4 21 3 24 -5 12 -9 -12 -11 -10 -6 10 2 14 1 81 -3 150 -6 96 -9 116
-14 85z m2 -455 c0 -5 -2 -10 -4 -10 -3 0 -8 5 -11 10 -3 6 -1 10 4 10 6 0 11
-4 11 -10z m-55 -30 c3 -5 1 -10 -4 -10 -6 0 -11 5 -11 10 0 6 2 10 4 10 3 0
8 -4 11 -10z m186 -1395 c14 10 10 -1 -6 -15 -13 -11 -15 -7 -14 26 2 31 3 33
6 11 2 -15 9 -25 14 -22z m-44 -87 c-3 -7 -5 -2 -5 12 0 14 2 19 5 13 2 -7 2
-19 0 -25z m-60 -105 c-3 -10 -5 -4 -5 12 0 17 2 24 5 18 2 -7 2 -21 0 -30z
m60 -15 c-3 -7 -5 -2 -5 12 0 14 2 19 5 13 2 -7 2 -19 0 -25z"/>
<path d="M6593 3390 c0 -30 2 -43 4 -27 2 15 2 39 0 55 -2 15 -4 2 -4 -28z"/>
<path d="M7345 3420 c-10 -17 12 -37 25 -24 8 8 6 15 -4 23 -10 9 -16 9 -21 1z"/>
<path d="M3216 3375 c-9 -26 -7 -32 5 -12 6 10 9 21 6 23 -2 3 -7 -2 -11 -11z"/>
<path d="M3196 3325 c-3 -9 -6 -22 -5 -28 0 -7 5 -1 10 12 5 13 8 26 5 28 -2
2 -6 -3 -10 -12z"/>
<path d="M7410 3321 c0 -6 4 -13 10 -16 6 -3 7 1 4 9 -7 18 -14 21 -14 7z"/>
<path d="M8381 3284 c0 -11 3 -14 6 -6 3 7 2 16 -1 19 -3 4 -6 -2 -5 -13z"/>
<path d="M3898 3253 c7 -3 16 -2 19 1 4 3 -2 6 -13 5 -11 0 -14 -3 -6 -6z"/>
<path d="M8391 3244 c0 -11 3 -14 6 -6 3 7 2 16 -1 19 -3 4 -6 -2 -5 -13z"/>
<path d="M6676 3136 c-10 -59 -15 -110 -12 -113 3 -4 6 -1 6 5 0 7 7 53 16
103 8 49 14 95 11 102 -2 6 -11 -37 -21 -97z"/>
<path d="M8201 3224 c0 -11 3 -14 6 -6 3 7 2 16 -1 19 -3 4 -6 -2 -5 -13z"/>
<path d="M2805 3170 c-10 -11 -16 -22 -13 -25 3 -3 13 4 23 15 10 11 16 22 13
25 -3 3 -13 -4 -23 -15z"/>
<path d="M8191 3164 c0 -11 3 -14 6 -6 3 7 2 16 -1 19 -3 4 -6 -2 -5 -13z"/>
<path d="M1533 3135 c-3 -9 -3 -18 -1 -21 9 -9 38 8 38 22 0 19 -29 18 -37 -1z"/>
<path d="M8431 3104 c0 -11 3 -14 6 -6 3 7 2 16 -1 19 -3 4 -6 -2 -5 -13z"/>
<path d="M1580 3080 c0 -5 5 -10 10 -10 6 0 10 5 10 10 0 6 -4 10 -10 10 -5 0
-10 -4 -10 -10z"/>
<path d="M8441 3054 c0 -11 3 -14 6 -6 3 7 2 16 -1 19 -3 4 -6 -2 -5 -13z"/>
<path d="M6636 2963 c-4 -21 -13 -58 -21 -83 -8 -25 -23 -74 -34 -110 -12 -36
-18 -53 -16 -37 3 15 1 27 -4 27 -15 0 -33 -78 -26 -109 4 -21 3 -23 -6 -11
-8 12 -9 7 -5 -20 4 -24 3 -30 -3 -20 -8 11 -12 8 -21 -15 -7 -17 -14 -45 -17
-64 -6 -31 -5 -32 15 -20 11 7 23 23 26 35 3 12 15 41 26 65 l20 44 -6 -42
c-3 -25 -2 -43 4 -43 5 0 12 33 16 73 4 39 21 136 37 215 17 79 29 145 26 148
-2 3 -8 -12 -11 -33z"/>
<path d="M1330 2966 c0 -2 7 -6 15 -10 8 -3 15 -1 15 4 0 6 -7 10 -15 10 -8 0
-15 -2 -15 -4z"/>
<path d="M1249 2925 c-4 -18 -6 -65 -3 -65 11 0 20 38 13 55 -4 11 -9 16 -10
10z"/>
<path d="M8301 2904 c0 -11 3 -14 6 -6 3 7 2 16 -1 19 -3 4 -6 -2 -5 -13z"/>
<path d="M8482 2900 c0 -14 2 -19 5 -12 2 6 2 18 0 25 -3 6 -5 1 -5 -13z"/>
<path d="M1347 2903 l42 -4 -6 -146 c-5 -122 -4 -145 8 -141 21 7 33 90 14
101 -21 11 -21 97 0 97 11 0 15 12 15 50 l0 50 -57 -2 c-50 -1 -52 -2 -16 -5z"/>
<path d="M8492 2850 c0 -14 2 -19 5 -12 2 6 2 18 0 25 -3 6 -5 1 -5 -13z"/>
<path d="M8335 2780 c2 -19 7 -59 11 -88 4 -29 10 -54 14 -57 7 -4 -15 150
-25 169 -3 6 -3 -5 0 -24z"/>
<path d="M8501 2794 c0 -11 3 -14 6 -6 3 7 2 16 -1 19 -3 4 -6 -2 -5 -13z"/>
<path d="M7591 2774 c0 -11 3 -14 6 -6 3 7 2 16 -1 19 -3 4 -6 -2 -5 -13z"/>
<path d="M4784 2759 c-3 -5 1 -9 8 -9 8 0 6 -5 -4 -11 -19 -11 -26 -79 -8 -79
6 0 10 -7 10 -15 0 -20 -10 -19 -26 3 -12 16 -13 15 -14 -5 0 -13 5 -23 10
-23 6 0 10 -7 10 -15 0 -14 3 -14 25 1 13 9 27 25 30 35 4 11 16 29 28 39 19
19 20 20 2 20 -18 0 -18 0 0 14 18 13 16 15 -23 34 -23 11 -44 16 -48 11z m61
-29 c3 -5 -3 -10 -14 -10 -12 0 -21 5 -21 10 0 6 6 10 14 10 8 0 18 -4 21 -10z"/>
<path d="M1242 2700 c0 -19 2 -27 5 -17 2 9 2 25 0 35 -3 9 -5 1 -5 -18z"/>
<path d="M1270 2718 c0 -15 8 -18 48 -16 47 1 47 1 7 5 -22 3 -43 10 -47 16
-5 8 -8 6 -8 -5z"/>
<path d="M5082 2648 c1 -16 6 -28 10 -28 11 0 10 22 -2 40 -8 11 -9 9 -8 -12z"/>
<path d="M1531 2624 c0 -11 3 -14 6 -6 3 7 2 16 -1 19 -3 4 -6 -2 -5 -13z"/>
<path d="M1266 2593 c-6 -14 -5 -15 5 -6 7 7 10 15 7 18 -3 3 -9 -2 -12 -12z"/>
<path d="M1310 2600 c0 -5 5 -10 10 -10 6 0 10 5 10 10 0 6 -4 10 -10 10 -5 0
-10 -4 -10 -10z"/>
<path d="M1355 2600 c3 -5 8 -10 11 -10 2 0 4 5 4 10 0 6 -5 10 -11 10 -5 0
-7 -4 -4 -10z"/>
<path d="M5716 2562 c-11 -26 -37 -74 -58 -107 -38 -58 -38 -59 -6 -22 44 50
113 177 96 177 -7 0 -22 -21 -32 -48z"/>
<path d="M8361 2594 c0 -11 3 -14 6 -6 3 7 2 16 -1 19 -3 4 -6 -2 -5 -13z"/>
<path d="M6228 2552 c-42 -26 -75 -49 -73 -51 2 -2 27 11 55 28 28 17 54 31
59 31 4 0 16 9 26 20 24 27 22 26 -67 -28z"/>
<path d="M2387 2573 c-4 -3 -7 -13 -7 -22 1 -13 3 -13 11 2 11 19 8 33 -4 20z"/>
<path d="M8375 2520 c2 -30 7 -106 11 -168 4 -62 11 -115 16 -118 5 -3 7 5 4
18 -3 12 -8 75 -11 138 -4 63 -10 131 -15 150 -8 30 -9 27 -5 -20z"/>
<path d="M1340 2540 c6 -11 15 -20 20 -20 6 0 10 9 10 20 0 13 -7 20 -20 20
-18 0 -19 -3 -10 -20z"/>
<path d="M4810 2540 c0 -11 -6 -20 -12 -20 -10 0 -10 -2 0 -9 10 -6 7 -10 -12
-13 -23 -5 -26 -2 -26 21 -1 23 -2 24 -13 10 -7 -9 -21 -19 -32 -22 -17 -4
-17 -5 3 -6 19 -1 22 -5 17 -21 -7 -22 10 -28 19 -7 3 6 3 0 0 -15 -4 -17 -2
-28 5 -28 6 0 11 9 11 20 0 18 3 19 20 10 22 -12 60 5 60 27 0 16 12 17 27 2
8 -8 13 -8 17 0 4 6 3 11 -3 11 -6 0 -8 12 -4 30 5 29 5 30 -36 30 -34 0 -41
-3 -41 -20z m15 -60 c3 -5 -1 -10 -9 -10 -9 0 -16 5 -16 10 0 6 4 10 9 10 6 0
13 -4 16 -10z"/>
<path d="M6558 2544 c-5 -4 -8 -23 -7 -43 0 -34 1 -34 10 -11 11 27 8 66 -3
54z"/>
<path d="M1366 2502 c5 -4 11 -34 12 -67 2 -33 9 -85 17 -115 l14 -55 -4 68
c-3 42 -1 67 5 67 6 0 9 22 8 55 -3 54 -4 55 -33 55 -16 0 -25 -4 -19 -8z"/>
<path d="M7062 2490 c0 -14 2 -19 5 -12 2 6 2 18 0 25 -3 6 -5 1 -5 -13z"/>
<path d="M6090 2470 c-9 -6 -10 -10 -3 -10 6 0 15 5 18 10 8 12 4 12 -15 0z"/>
<path d="M4707 2419 c-4 -16 -3 -18 9 -8 7 6 11 15 8 20 -8 13 -11 11 -17 -12z"/>
<path d="M5990 2415 c-14 -8 -20 -14 -15 -14 6 0 21 6 35 14 14 8 21 14 15 14
-5 0 -21 -6 -35 -14z"/>
<path d="M4722 2388 c-13 -15 -22 -33 -20 -39 2 -5 14 4 26 21 30 40 24 56 -6
18z"/>
<path d="M6542 2400 c0 -14 2 -19 5 -12 2 6 2 18 0 25 -3 6 -5 1 -5 -13z"/>
<path d="M5595 2379 c-4 -6 -5 -12 -2 -15 2 -3 7 2 10 11 7 17 1 20 -8 4z"/>
<path d="M6450 2365 c0 -11 7 -38 16 -60 l15 -40 -6 44 c-7 50 -24 90 -25 56z"/>
<path d="M7412 2340 c0 -19 2 -27 5 -17 2 9 2 25 0 35 -3 9 -5 1 -5 -18z"/>
<path d="M6964 2270 c0 -52 1 -74 3 -47 2 26 2 68 0 95 -2 26 -3 4 -3 -48z"/>
<path d="M1431 2284 c0 -11 3 -14 6 -6 3 7 2 16 -1 19 -3 4 -6 -2 -5 -13z"/>
<path d="M7422 2250 c0 -19 2 -27 5 -17 2 9 2 25 0 35 -3 9 -5 1 -5 -18z"/>
<path d="M6481 2235 c-1 -28 20 -140 40 -210 5 -20 6 -10 2 30 -7 76 -41 222
-42 180z"/>
<path d="M1412 2220 c0 -14 2 -19 5 -12 2 6 2 18 0 25 -3 6 -5 1 -5 -13z"/>
<path d="M7435 2180 c19 -120 45 -249 54 -270 l12 -25 -6 25 c-3 14 -14 75
-25 135 -20 109 -47 215 -35 135z"/>
<path d="M8400 2066 c0 -70 4 -125 9 -122 8 5 4 236 -5 245 -2 2 -4 -53 -4
-123z"/>
<path d="M6361 2164 c0 -11 3 -14 6 -6 3 7 2 16 -1 19 -3 4 -6 -2 -5 -13z"/>
<path d="M1273 2095 c0 -22 2 -30 4 -17 2 12 2 30 0 40 -3 9 -5 -1 -4 -23z"/>
<path d="M7111 1975 c0 -60 4 -153 9 -205 12 -115 56 -384 75 -460 7 -30 19
-90 26 -133 6 -43 16 -80 22 -84 6 -4 8 0 4 11 -4 9 -16 71 -27 138 -12 67
-23 125 -26 130 -7 11 -34 217 -33 253 1 30 8 -3 44 -190 36 -191 135 -553
205 -745 17 -47 35 -98 39 -115 4 -16 20 -56 34 -88 15 -32 27 -60 27 -62 0
-2 11 -28 23 -57 13 -29 41 -93 62 -141 21 -48 42 -90 45 -92 4 -3 7 13 7 35
0 22 -4 37 -8 34 -5 -3 -4 7 1 21 14 37 13 40 -9 21 -17 -16 -19 -16 -25 0 -4
9 -4 19 -1 22 3 3 5 -1 5 -9 0 -12 2 -12 9 0 6 9 4 19 -5 28 -8 8 -14 20 -14
26 0 7 5 6 11 -3 9 -12 10 -12 5 3 -3 10 -6 23 -6 29 0 6 -6 6 -15 -2 -13 -11
-15 -8 -15 14 0 14 -4 26 -10 26 -5 0 -10 -5 -10 -12 0 -6 -3 -8 -6 -5 -4 4
-1 20 6 36 9 22 9 34 1 48 -10 15 -10 14 -5 -8 3 -15 2 -29 -3 -32 -4 -3 -8
11 -8 31 0 21 -2 42 -4 47 -6 11 -7 18 -10 55 -1 21 -3 22 -12 10 -8 -11 -9
-6 -5 20 4 21 3 30 -3 22 -10 -17 -21 6 -21 45 0 26 0 26 -21 8 -20 -19 -20
-19 -10 9 13 34 14 57 2 38 -7 -11 -9 -11 -14 2 -4 10 -1 16 8 16 9 0 12 6 8
16 -3 8 -12 13 -20 9 -11 -3 -13 -1 -10 10 4 8 2 17 -3 20 -5 3 -7 20 -3 37 5
24 3 29 -7 23 -9 -5 -10 -1 -6 16 l7 24 -14 -24 c-14 -24 -14 -23 -12 15 3 58
-14 131 -27 113 -7 -10 -8 -2 -4 26 4 27 3 34 -3 20 -7 -16 -10 -17 -13 -5 -3
8 -10 29 -15 47 -8 22 -7 35 1 43 8 9 7 11 -4 8 -11 -2 -14 4 -12 26 3 26 -3
44 -39 118 -5 10 -6 24 -3 33 4 9 0 23 -9 33 -15 18 -35 101 -39 162 -1 19 -5
40 -8 45 -4 6 -18 79 -30 164 -16 103 -26 147 -32 135 -5 -12 -6 -7 -2 14 3
18 1 54 -5 80 -7 26 -18 74 -25 107 l-14 60 -1 -110z"/>
<path d="M6331 2044 c0 -11 3 -14 6 -6 3 7 2 16 -1 19 -3 4 -6 -2 -5 -13z"/>
<path d="M641 2014 c0 -11 3 -14 6 -6 3 7 2 16 -1 19 -3 4 -6 -2 -5 -13z"/>
<path d="M1283 1975 c0 -22 2 -30 4 -17 2 12 2 30 0 40 -3 9 -5 -1 -4 -23z"/>
<path d="M6973 1930 c0 -47 2 -66 4 -42 2 23 2 61 0 85 -2 23 -4 4 -4 -43z"/>
<path d="M7771 2001 c-1 -19 27 -127 44 -166 7 -16 16 -49 20 -72 4 -24 11
-43 17 -43 6 0 8 -10 4 -24 -3 -13 -2 -26 3 -28 4 -2 18 -48 30 -103 44 -198
49 -220 50 -200 1 32 -30 199 -38 205 -4 3 -16 51 -26 108 -10 56 -22 102 -26
102 -4 0 -15 32 -24 72 -9 39 -19 76 -23 82 -4 6 -12 27 -18 46 -7 19 -12 29
-13 21z"/>
<path d="M6321 1984 c0 -11 3 -14 6 -6 3 7 2 16 -1 19 -3 4 -6 -2 -5 -13z"/>
<path d="M6532 1955 c0 -16 2 -22 5 -12 2 9 2 23 0 30 -3 6 -5 -1 -5 -18z"/>
<path d="M5252 1910 c0 -14 2 -19 5 -12 2 6 2 18 0 25 -3 6 -5 1 -5 -13z"/>
<path d="M6542 1900 c0 -14 2 -19 5 -12 2 6 2 18 0 25 -3 6 -5 1 -5 -13z"/>
<path d="M1291 1874 c0 -21 4 -48 9 -59 6 -13 7 -1 3 35 -7 66 -13 78 -12 24z"/>
<path d="M7502 1860 c0 -14 4 -38 8 -55 7 -27 8 -27 8 -5 0 14 -4 39 -8 55 -7
27 -8 27 -8 5z"/>
<path d="M641 1844 c0 -11 3 -14 6 -6 3 7 2 16 -1 19 -3 4 -6 -2 -5 -13z"/>
<path d="M2717 1833 c-4 -3 -7 -14 -7 -22 0 -12 10 -16 40 -16 44 0 74 -20 51
-34 -9 -6 -10 -11 -2 -15 16 -10 31 2 31 24 0 38 -89 88 -113 63z"/>
<path d="M6562 1820 c0 -14 2 -19 5 -12 2 6 2 18 0 25 -3 6 -5 1 -5 -13z"/>
<path d="M6282 1790 c0 -14 2 -19 5 -12 2 6 2 18 0 25 -3 6 -5 1 -5 -13z"/>
<path d="M6572 1765 c0 -16 2 -22 5 -12 2 9 2 23 0 30 -3 6 -5 -1 -5 -18z"/>
<path d="M1231 1770 c-1 -19 -88 -294 -106 -335 -18 -43 -29 -102 -17 -90 37
37 139 367 129 418 -2 12 -5 15 -6 7z"/>
<path d="M6982 1694 c-1 -50 4 -183 12 -295 8 -112 20 -283 26 -379 7 -96 14
-177 16 -179 6 -6 5 30 -6 179 -5 74 -14 236 -21 360 -6 124 -14 266 -18 315
l-8 90 -1 -91z"/>
<path d="M7521 1754 c0 -11 3 -14 6 -6 3 7 2 16 -1 19 -3 4 -6 -2 -5 -13z"/>
<path d="M8060 1725 c0 -22 -1 -51 -1 -65 -1 -32 23 -126 35 -137 5 -4 6 3 3
17 -3 14 -9 61 -13 105 -8 94 -23 143 -24 80z"/>
<path d="M8043 1715 c0 -22 2 -30 4 -17 2 12 2 30 0 40 -3 9 -5 -1 -4 -23z"/>
<path d="M1312 1710 c0 -19 2 -27 5 -17 2 9 2 25 0 35 -3 9 -5 1 -5 -18z"/>
<path d="M6582 1710 c0 -14 2 -19 5 -12 2 6 2 18 0 25 -3 6 -5 1 -5 -13z"/>
<path d="M7541 1694 c0 -11 3 -14 6 -6 3 7 2 16 -1 19 -3 4 -6 -2 -5 -13z"/>
<path d="M7552 1655 c0 -11 6 -42 13 -70 7 -27 13 -41 13 -30 0 11 -6 43 -13
70 -7 28 -13 41 -13 30z"/>
<path d="M1322 1600 c-2 -60 25 -477 31 -487 3 -5 13 -84 22 -178 30 -305 121
-914 139 -933 17 -17 15 20 -8 140 -14 73 -30 178 -36 233 -6 55 -19 150 -29
210 -34 197 -70 509 -110 965 -4 52 -9 75 -9 50z"/>
<path d="M2210 1613 c0 -5 23 -21 52 -38 82 -48 271 -175 295 -199 l22 -21 -9
-315 c-16 -524 -17 -1040 -2 -1040 9 0 12 34 12 136 0 96 3 133 11 128 8 -4 9
-47 6 -135 -5 -108 -3 -129 9 -129 11 0 14 21 14 107 0 99 10 324 41 943 7
129 16 245 20 258 6 16 17 22 38 22 27 0 32 -5 49 -52 11 -29 25 -72 32 -95 7
-24 17 -43 22 -43 12 0 10 8 -21 93 -16 44 -28 84 -25 91 3 8 61 19 157 31
203 25 245 25 280 0 34 -25 112 -139 121 -179 4 -15 9 -26 12 -23 3 3 -2 30
-11 60 -15 52 -27 72 -82 145 l-22 29 167 33 c226 43 345 71 357 83 12 12 -11
8 -205 -32 -190 -39 -445 -77 -649 -96 -268 -25 -246 -29 -396 71 -114 75
-280 174 -291 174 -2 0 -4 -3 -4 -7z m397 -1305 c-3 -7 -5 -2 -5 12 0 14 2 19
5 13 2 -7 2 -19 0 -25z"/>
<path d="M7596 1486 c7 -50 44 -169 50 -163 3 3 -2 27 -10 54 -9 26 -23 71
-31 98 -13 43 -14 45 -9 11z"/>
<path d="M8095 1460 c-3 -5 -1 -10 4 -10 6 0 11 5 11 10 0 6 -2 10 -4 10 -3 0
-8 -4 -11 -10z"/>
<path d="M8121 1384 c0 -11 3 -14 6 -6 3 7 2 16 -1 19 -3 4 -6 -2 -5 -13z"/>
<path d="M7261 1374 c0 -11 3 -14 6 -6 3 7 2 16 -1 19 -3 4 -6 -2 -5 -13z"/>
<path d="M901 1208 c-23 -79 -51 -174 -62 -213 -11 -38 -28 -88 -39 -110 -132
-279 -247 -591 -305 -832 -12 -50 -12 -53 6 -53 10 0 19 6 19 13 0 7 3 8 8 2
10 -15 75 -16 84 -2 4 6 8 28 9 47 0 29 2 32 10 15 9 -20 9 -20 6 0 -1 11 -9
20 -17 21 -35 2 -39 5 -45 33 -9 43 4 104 20 91 9 -8 14 -5 18 10 8 33 27 24
21 -10 -4 -18 -2 -30 4 -30 18 0 18 71 0 123 -22 61 -22 63 -4 48 11 -9 13 -4
12 31 0 25 4 43 12 46 6 2 12 15 12 29 0 14 8 32 18 39 13 11 14 15 4 22 -13
9 -6 46 7 38 4 -3 8 11 8 31 1 19 10 48 21 63 11 15 28 43 37 61 18 39 26 52
76 129 183 280 230 366 255 465 4 14 2 13 -8 -5 -8 -14 -21 -24 -30 -22 -9 1
-20 -3 -24 -9 -5 -9 -2 -10 9 -6 24 9 21 -3 -9 -38 -23 -27 -26 -28 -21 -7 8
33 -7 27 -20 -9 -9 -22 -17 -30 -28 -26 -17 7 -18 2 -5 -28 9 -19 9 -19 16 3
3 12 10 22 15 22 11 0 11 -3 -1 -35 -7 -19 -15 -25 -26 -21 -11 4 -15 0 -13
-17 3 -25 -20 -77 -33 -77 -5 0 -2 10 6 22 26 36 18 46 -10 13 l-26 -30 6 34
c4 19 11 53 17 75 10 36 13 38 20 21 6 -14 8 -2 5 35 -3 36 -1 48 4 35 8 -18
9 -18 10 5 1 14 4 42 5 63 7 73 -12 35 -54 -105z m-11 -173 c7 -9 8 -15 2 -15
-5 0 -12 7 -16 15 -3 8 -4 15 -2 15 2 0 9 -7 16 -15z m-327 -932 c-7 -2 -13
-12 -13 -20 0 -9 -3 -14 -6 -10 -10 10 4 37 18 36 10 0 10 -2 1 -6z"/>
<path d="M7947 1344 c-9 -15 3 -103 14 -110 10 -6 10 46 0 91 -4 18 -9 25 -14
19z"/>
<path d="M7656 1280 c7 -39 21 -80 28 -80 4 0 -19 84 -29 105 -3 6 -2 -6 1
-25z"/>
<path d="M974 1265 c3 -8 1 -15 -4 -15 -6 0 -10 -9 -10 -20 0 -11 5 -20 10
-20 6 0 10 6 10 13 0 6 3 22 6 35 4 14 2 22 -6 22 -7 0 -10 -7 -6 -15z"/>
<path d="M8136 1237 c3 -10 9 -15 12 -12 3 3 0 11 -7 18 -10 9 -11 8 -5 -6z"/>
<path d="M7972 1195 c0 -16 2 -22 5 -12 2 9 2 23 0 30 -3 6 -5 -1 -5 -18z"/>
<path d="M7732 1048 c28 -79 57 -162 65 -186 9 -23 18 -41 21 -38 2 3 -15 56
-38 118 -23 62 -52 143 -64 181 -11 37 -24 67 -28 67 -3 0 16 -64 44 -142z"/>
<path d="M7981 1125 c0 -31 2 -36 9 -23 6 10 7 25 1 40 -9 20 -10 18 -10 -17z"/>
<path d="M7251 1068 c-2 -27 36 -202 69 -323 17 -60 39 -144 49 -186 10 -42
21 -82 25 -88 4 -6 16 -44 27 -83 11 -40 24 -77 28 -83 5 -5 11 -23 15 -39 13
-55 113 -266 126 -266 14 0 13 12 -3 35 -7 11 -28 56 -47 100 -18 44 -41 98
-50 120 -25 57 -107 292 -118 340 -6 22 -30 119 -55 215 -24 96 -49 198 -55
225 -5 28 -10 42 -11 33z"/>
<path d="M7991 1060 c0 -14 4 -34 9 -45 7 -17 9 -16 9 10 0 17 -4 37 -9 45 -8
12 -10 10 -9 -10z"/>
<path d="M7852 1020 c0 -19 2 -27 5 -17 2 9 2 25 0 35 -3 9 -5 1 -5 -18z"/>
<path d="M8001 975 c0 -11 4 -29 9 -40 8 -18 9 -18 9 5 0 14 -4 32 -9 40 -8
12 -10 12 -9 -5z"/>
<path d="M7881 824 c0 -11 3 -14 6 -6 3 7 2 16 -1 19 -3 4 -6 -2 -5 -13z"/>
<path d="M7820 801 c0 -5 5 -13 10 -16 6 -3 10 -2 10 4 0 5 -4 13 -10 16 -5 3
-10 2 -10 -4z"/>
<path d="M1232 775 c0 -16 2 -22 5 -12 2 9 2 23 0 30 -3 6 -5 -1 -5 -18z"/>
<path d="M7892 775 c0 -16 2 -22 5 -12 2 9 2 23 0 30 -3 6 -5 -1 -5 -18z"/>
<path d="M7053 755 c0 -22 2 -30 4 -17 2 12 2 30 0 40 -3 9 -5 -1 -4 -23z"/>
<path d="M7840 761 c0 -7 14 -43 30 -81 17 -38 30 -73 30 -78 0 -6 6 -17 13
-24 6 -7 23 -44 36 -83 25 -75 65 -145 82 -145 6 0 2 12 -9 28 -11 15 -32 64
-47 110 -15 45 -31 82 -36 82 -5 0 -10 12 -10 28 -1 20 -3 22 -6 8 -4 -14 -16
9 -40 70 -36 93 -43 106 -43 85z"/>
<path d="M5922 748 c-30 -5 -51 -12 -49 -14 3 -3 34 0 71 7 36 6 104 9 150 8
77 -4 88 -7 131 -38 26 -18 62 -49 81 -68 19 -18 34 -29 34 -24 0 16 -103 103
-145 122 -45 21 -179 24 -273 7z"/>
<path d="M7902 715 c0 -16 4 -41 8 -55 l8 -25 0 25 c0 14 -4 39 -8 55 l-8 30
0 -30z"/>
<path d="M1266 562 c-29 -162 -57 -286 -103 -454 -14 -54 -23 -101 -20 -105
11 -10 14 -4 46 117 59 226 125 580 109 595 -2 3 -17 -66 -32 -153z"/>
<path d="M5795 710 c-13 -5 -14 -9 -5 -9 8 0 24 4 35 9 13 5 14 9 5 9 -8 0
-24 -4 -35 -9z"/>
<path d="M1222 675 c0 -16 2 -22 5 -12 2 9 2 23 0 30 -3 6 -5 -1 -5 -18z"/>
<path d="M5748 693 c7 -3 16 -2 19 1 4 3 -2 6 -13 5 -11 0 -14 -3 -6 -6z"/>
<path d="M7063 665 c0 -22 2 -30 4 -17 2 12 2 30 0 40 -3 9 -5 -1 -4 -23z"/>
<path d="M3595 640 c-65 -38 -90 -58 -82 -66 3 -3 27 9 54 27 26 18 64 41 83
50 26 13 30 18 15 19 -11 0 -42 -14 -70 -30z"/>
<path d="M2320 638 c0 -14 11 -57 25 -94 14 -38 28 -75 31 -83 2 -8 7 -12 10
-9 7 7 -45 190 -57 203 -5 5 -9 -1 -9 -17z"/>
<path d="M6347 585 c-8 -20 18 -25 93 -16 l65 8 -58 2 c-32 0 -67 5 -77 11
-13 7 -19 6 -23 -5z"/>
<path d="M7070 570 c0 -16 4 -30 8 -30 5 0 7 14 4 30 -2 17 -6 30 -8 30 -2 0
-4 -13 -4 -30z"/>
<path d="M6650 569 c0 -5 46 -9 103 -8 56 0 98 2 92 4 -24 8 -195 12 -195 4z"/>
<path d="M581 515 c-13 -31 -90 -157 -172 -280 -82 -124 -149 -227 -149 -230
0 -3 9 -5 21 -5 12 0 17 4 13 11 -5 8 -1 8 14 0 24 -13 43 -15 23 -2 -11 7
-11 12 -2 22 6 8 18 23 26 34 13 18 14 18 15 2 0 -9 -5 -26 -12 -37 -7 -10 -9
-23 -5 -27 5 -4 12 -1 16 6 7 11 9 11 14 0 7 -21 21 -2 45 61 11 30 48 127 82
215 84 215 102 265 98 277 -2 5 -14 -16 -27 -47z"/>
<path d="M6883 553 c15 -2 39 -2 55 0 15 2 2 4 -28 4 -30 0 -43 -2 -27 -4z"/>
<path d="M1185 465 c-4 -37 -5 -69 -2 -71 2 -3 8 25 12 61 4 37 5 69 2 71 -2
3 -8 -25 -12 -61z"/>
<path d="M7167 500 c3 -14 9 -26 14 -28 5 -2 6 -16 3 -30 -5 -21 -4 -24 5 -16
14 13 5 87 -9 79 -5 -3 -10 0 -13 7 -2 7 -2 2 0 -12z"/>
<path d="M6620 488 c-44 -109 -60 -143 -68 -146 -6 -2 -16 29 -23 68 -9 54
-16 70 -26 65 -8 -3 -22 -5 -30 -5 -11 0 -10 -4 6 -17 15 -13 26 -43 38 -100
10 -46 21 -83 26 -83 4 0 19 25 33 55 14 30 29 54 32 52 4 -2 35 -21 70 -41
77 -46 93 -43 19 4 -88 56 -86 53 -72 115 14 57 11 72 -5 33z"/>
<path d="M8034 495 c8 -8 27 -15 43 -14 28 1 28 1 -7 14 -47 18 -54 18 -36 0z"/>
<path d="M7161 448 c-2 -29 18 -68 34 -68 9 0 23 -15 31 -32 l15 -33 -6 40
c-4 22 -11 41 -15 43 -5 2 -6 10 -3 18 7 18 -2 18 -21 -1 -14 -14 -16 -12 -25
17 -5 18 -10 25 -10 16z"/>
<path d="M650 395 c0 -8 5 -15 10 -15 6 0 10 7 10 15 0 8 -4 15 -10 15 -5 0
-10 -7 -10 -15z"/>
<path d="M2052 380 c0 -14 2 -19 5 -12 2 6 2 18 0 25 -3 6 -5 1 -5 -13z"/>
<path d="M1172 355 c0 -16 2 -22 5 -12 2 9 2 23 0 30 -3 6 -5 -1 -5 -18z"/>
<path d="M650 330 c0 -5 5 -10 10 -10 6 0 10 5 10 10 0 6 -4 10 -10 10 -5 0
-10 -4 -10 -10z"/>
<path d="M2062 310 c0 -19 2 -27 5 -17 2 9 2 25 0 35 -3 9 -5 1 -5 -18z"/>
<path d="M7212 320 c0 -14 2 -19 5 -12 2 6 2 18 0 25 -3 6 -5 1 -5 -13z"/>
<path d="M7240 285 c1 -26 2 -28 11 -12 8 14 8 22 0 30 -8 8 -11 3 -11 -18z"/>
<path d="M1157 293 c-4 -3 -7 -13 -7 -22 1 -13 3 -13 11 2 11 19 8 33 -4 20z"/>
<path d="M2072 235 c0 -16 2 -22 5 -12 2 9 2 23 0 30 -3 6 -5 -1 -5 -18z"/>
<path d="M7260 243 c0 -12 7 -23 15 -27 13 -5 14 -2 4 17 -17 32 -19 33 -19
10z"/>
<path d="M1141 214 c0 -11 3 -14 6 -6 3 7 2 16 -1 19 -3 4 -6 -2 -5 -13z"/>
<path d="M7650 220 c0 -5 5 -10 10 -10 6 0 10 5 10 10 0 6 -4 10 -10 10 -5 0
-10 -4 -10 -10z"/>
<path d="M8096 183 c15 -27 34 -61 43 -78 38 -70 64 -105 77 -105 8 0 14 6 14
13 0 6 3 22 6 34 5 17 2 23 -9 23 -9 0 -17 -10 -19 -22 -3 -18 -14 -4 -51 62
-51 92 -70 120 -81 120 -4 0 5 -21 20 -47z"/>
<path d="M2430 113 c0 -48 5 -95 10 -103 7 -10 10 16 10 82 0 54 -4 100 -10
103 -6 4 -10 -26 -10 -82z"/>
<path d="M595 179 c-11 -16 -1 -19 13 -3 7 8 8 14 3 14 -5 0 -13 -5 -16 -11z"/>
<path d="M1132 155 c0 -16 2 -22 5 -12 2 9 2 23 0 30 -3 6 -5 -1 -5 -18z"/>
<path d="M7170 123 c0 -24 27 -101 41 -117 22 -24 17 7 -10 70 -18 41 -30 60
-31 47z"/>
<path d="M1121 84 c0 -11 3 -14 6 -6 3 7 2 16 -1 19 -3 4 -6 -2 -5 -13z"/>
<path d="M2102 80 c0 -14 2 -19 5 -12 2 6 2 18 0 25 -3 6 -5 1 -5 -13z"/>
<path d="M2111 14 c0 -11 3 -14 6 -6 3 7 2 16 -1 19 -3 4 -6 -2 -5 -13z"/>
</g>
</svg>
